%TF.GenerationSoftware,KiCad,Pcbnew,7.0.8*%
%TF.CreationDate,2024-07-21T17:29:17-05:00*%
%TF.ProjectId,esdi_fmc,65736469-5f66-46d6-932e-6b696361645f,rev?*%
%TF.SameCoordinates,Original*%
%TF.FileFunction,Paste,Top*%
%TF.FilePolarity,Positive*%
%FSLAX46Y46*%
G04 Gerber Fmt 4.6, Leading zero omitted, Abs format (unit mm)*
G04 Created by KiCad (PCBNEW 7.0.8) date 2024-07-21 17:29:17*
%MOMM*%
%LPD*%
G01*
G04 APERTURE LIST*
G04 Aperture macros list*
%AMRoundRect*
0 Rectangle with rounded corners*
0 $1 Rounding radius*
0 $2 $3 $4 $5 $6 $7 $8 $9 X,Y pos of 4 corners*
0 Add a 4 corners polygon primitive as box body*
4,1,4,$2,$3,$4,$5,$6,$7,$8,$9,$2,$3,0*
0 Add four circle primitives for the rounded corners*
1,1,$1+$1,$2,$3*
1,1,$1+$1,$4,$5*
1,1,$1+$1,$6,$7*
1,1,$1+$1,$8,$9*
0 Add four rect primitives between the rounded corners*
20,1,$1+$1,$2,$3,$4,$5,0*
20,1,$1+$1,$4,$5,$6,$7,0*
20,1,$1+$1,$6,$7,$8,$9,0*
20,1,$1+$1,$8,$9,$2,$3,0*%
G04 Aperture macros list end*
%ADD10RoundRect,0.100000X-0.100000X0.637500X-0.100000X-0.637500X0.100000X-0.637500X0.100000X0.637500X0*%
%ADD11RoundRect,0.150000X-0.150000X0.825000X-0.150000X-0.825000X0.150000X-0.825000X0.150000X0.825000X0*%
%ADD12RoundRect,0.250000X0.450000X-0.262500X0.450000X0.262500X-0.450000X0.262500X-0.450000X-0.262500X0*%
%ADD13RoundRect,0.182500X-0.182500X-0.222500X0.182500X-0.222500X0.182500X0.222500X-0.182500X0.222500X0*%
%ADD14RoundRect,0.062500X-0.300000X-0.062500X0.300000X-0.062500X0.300000X0.062500X-0.300000X0.062500X0*%
%ADD15RoundRect,0.250000X-0.262500X-0.450000X0.262500X-0.450000X0.262500X0.450000X-0.262500X0.450000X0*%
%ADD16RoundRect,0.250000X0.262500X0.450000X-0.262500X0.450000X-0.262500X-0.450000X0.262500X-0.450000X0*%
%ADD17RoundRect,0.250000X0.650000X-0.325000X0.650000X0.325000X-0.650000X0.325000X-0.650000X-0.325000X0*%
%ADD18C,0.635000*%
%ADD19R,2.006600X0.990600*%
%ADD20RoundRect,0.250000X-0.650000X0.325000X-0.650000X-0.325000X0.650000X-0.325000X0.650000X0.325000X0*%
%ADD21RoundRect,0.250000X0.325000X0.650000X-0.325000X0.650000X-0.325000X-0.650000X0.325000X-0.650000X0*%
G04 APERTURE END LIST*
D10*
%TO.C,U4*%
X77206700Y-71485600D03*
X76556700Y-71485600D03*
X75906700Y-71485600D03*
X75256700Y-71485600D03*
X74606700Y-71485600D03*
X73956700Y-71485600D03*
X73306700Y-71485600D03*
X72656700Y-71485600D03*
X72006700Y-71485600D03*
X71356700Y-71485600D03*
X70706700Y-71485600D03*
X70056700Y-71485600D03*
X70056700Y-77210600D03*
X70706700Y-77210600D03*
X71356700Y-77210600D03*
X72006700Y-77210600D03*
X72656700Y-77210600D03*
X73306700Y-77210600D03*
X73956700Y-77210600D03*
X74606700Y-77210600D03*
X75256700Y-77210600D03*
X75906700Y-77210600D03*
X76556700Y-77210600D03*
X77206700Y-77210600D03*
%TD*%
D11*
%TO.C,U7*%
X86223700Y-82345600D03*
X84953700Y-82345600D03*
X83683700Y-82345600D03*
X82413700Y-82345600D03*
X81143700Y-82345600D03*
X79873700Y-82345600D03*
X78603700Y-82345600D03*
X78603700Y-87295600D03*
X79873700Y-87295600D03*
X81143700Y-87295600D03*
X82413700Y-87295600D03*
X83683700Y-87295600D03*
X84953700Y-87295600D03*
X86223700Y-87295600D03*
%TD*%
%TO.C,U8*%
X71974300Y-82345600D03*
X70704300Y-82345600D03*
X69434300Y-82345600D03*
X68164300Y-82345600D03*
X68164300Y-87295600D03*
X69434300Y-87295600D03*
X70704300Y-87295600D03*
X71974300Y-87295600D03*
%TD*%
D12*
%TO.C,R1*%
X100584000Y-78128500D03*
X100584000Y-76303500D03*
%TD*%
D10*
%TO.C,U3*%
X86344900Y-71485600D03*
X85694900Y-71485600D03*
X85044900Y-71485600D03*
X84394900Y-71485600D03*
X83744900Y-71485600D03*
X83094900Y-71485600D03*
X82444900Y-71485600D03*
X81794900Y-71485600D03*
X81144900Y-71485600D03*
X80494900Y-71485600D03*
X79844900Y-71485600D03*
X79194900Y-71485600D03*
X79194900Y-77210600D03*
X79844900Y-77210600D03*
X80494900Y-77210600D03*
X81144900Y-77210600D03*
X81794900Y-77210600D03*
X82444900Y-77210600D03*
X83094900Y-77210600D03*
X83744900Y-77210600D03*
X84394900Y-77210600D03*
X85044900Y-77210600D03*
X85694900Y-77210600D03*
X86344900Y-77210600D03*
%TD*%
D13*
%TO.C,U1*%
X106621700Y-77597600D03*
X106621700Y-78597600D03*
D14*
X105609200Y-77097600D03*
X105609200Y-77597600D03*
X105609200Y-78097600D03*
X105609200Y-78597600D03*
X105609200Y-79097600D03*
X107634200Y-79097600D03*
X107634200Y-78597600D03*
X107634200Y-78097600D03*
X107634200Y-77597600D03*
X107634200Y-77097600D03*
%TD*%
D11*
%TO.C,U6*%
X97323500Y-82356800D03*
X96053500Y-82356800D03*
X94783500Y-82356800D03*
X93513500Y-82356800D03*
X92243500Y-82356800D03*
X90973500Y-82356800D03*
X89703500Y-82356800D03*
X89703500Y-87306800D03*
X90973500Y-87306800D03*
X92243500Y-87306800D03*
X93513500Y-87306800D03*
X94783500Y-87306800D03*
X96053500Y-87306800D03*
X97323500Y-87306800D03*
%TD*%
D15*
%TO.C,R2*%
X100433500Y-83058000D03*
X102258500Y-83058000D03*
%TD*%
D16*
%TO.C,R3*%
X72300700Y-90815000D03*
X70475700Y-90815000D03*
%TD*%
D17*
%TO.C,C1*%
X103218100Y-77534400D03*
X103218100Y-74584400D03*
%TD*%
D18*
%TO.C,J1*%
X110074300Y-56525000D03*
X108804300Y-56525000D03*
X107534300Y-56525000D03*
X106264300Y-56525000D03*
X104994300Y-56525000D03*
X103724300Y-56525000D03*
X102454300Y-56525000D03*
X101184300Y-56525000D03*
X99914300Y-56525000D03*
X98644300Y-56525000D03*
X97374300Y-56525000D03*
X96104300Y-56525000D03*
X94834300Y-56525000D03*
X93564300Y-56525000D03*
X92294300Y-56525000D03*
X91024300Y-56525000D03*
X89754300Y-56525000D03*
X88484300Y-56525000D03*
X87214300Y-56525000D03*
X85944300Y-56525000D03*
X84674300Y-56525000D03*
X83404300Y-56525000D03*
X82134300Y-56525000D03*
X80864300Y-56525000D03*
X79594300Y-56525000D03*
X78324300Y-56525000D03*
X77054300Y-56525000D03*
X75784300Y-56525000D03*
X74514300Y-56525000D03*
X73244300Y-56525000D03*
X71974300Y-56525000D03*
X70704300Y-56525000D03*
X69434300Y-56525000D03*
X68164300Y-56525000D03*
X66894300Y-56525000D03*
X65624300Y-56525000D03*
X64354300Y-56525000D03*
X63084300Y-56525000D03*
X61814300Y-56525000D03*
X60544300Y-56525000D03*
X110074300Y-57795000D03*
X108804300Y-57795000D03*
X107534300Y-57795000D03*
X106264300Y-57795000D03*
X104994300Y-57795000D03*
X103724300Y-57795000D03*
X102454300Y-57795000D03*
X101184300Y-57795000D03*
X99914300Y-57795000D03*
X98644300Y-57795000D03*
X97374300Y-57795000D03*
X96104300Y-57795000D03*
X94834300Y-57795000D03*
X93564300Y-57795000D03*
X92294300Y-57795000D03*
X91024300Y-57795000D03*
X89754300Y-57795000D03*
X88484300Y-57795000D03*
X87214300Y-57795000D03*
X85944300Y-57795000D03*
X84674300Y-57795000D03*
X83404300Y-57795000D03*
X82134300Y-57795000D03*
X80864300Y-57795000D03*
X79594300Y-57795000D03*
X78324300Y-57795000D03*
X77054300Y-57795000D03*
X75784300Y-57795000D03*
X74514300Y-57795000D03*
X73244300Y-57795000D03*
X71974300Y-57795000D03*
X70704300Y-57795000D03*
X69434300Y-57795000D03*
X68164300Y-57795000D03*
X66894300Y-57795000D03*
X65624300Y-57795000D03*
X64354300Y-57795000D03*
X63084300Y-57795000D03*
X61814300Y-57795000D03*
X60544300Y-57795000D03*
X110074300Y-61605000D03*
X108804300Y-61605000D03*
X107534300Y-61605000D03*
X106264300Y-61605000D03*
X104994300Y-61605000D03*
X103724300Y-61605000D03*
X102454300Y-61605000D03*
X101184300Y-61605000D03*
X99914300Y-61605000D03*
X98644300Y-61605000D03*
X97374300Y-61605000D03*
X96104300Y-61605000D03*
X94834300Y-61605000D03*
X93564300Y-61605000D03*
X92294300Y-61605000D03*
X91024300Y-61605000D03*
X89754300Y-61605000D03*
X88484300Y-61605000D03*
X87214300Y-61605000D03*
X85944300Y-61605000D03*
X84674300Y-61605000D03*
X83404300Y-61605000D03*
X82134300Y-61605000D03*
X80864300Y-61605000D03*
X79594300Y-61605000D03*
X78324300Y-61605000D03*
X77054300Y-61605000D03*
X75784300Y-61605000D03*
X74514300Y-61605000D03*
X73244300Y-61605000D03*
X71974300Y-61605000D03*
X70704300Y-61605000D03*
X69434300Y-61605000D03*
X68164300Y-61605000D03*
X66894300Y-61605000D03*
X65624300Y-61605000D03*
X64354300Y-61605000D03*
X63084300Y-61605000D03*
X61814300Y-61605000D03*
X60544300Y-61605000D03*
X110074300Y-62875000D03*
X108804300Y-62875000D03*
X107534300Y-62875000D03*
X106264300Y-62875000D03*
X104994300Y-62875000D03*
X103724300Y-62875000D03*
X102454300Y-62875000D03*
X101184300Y-62875000D03*
X99914300Y-62875000D03*
X98644300Y-62875000D03*
X97374300Y-62875000D03*
X96104300Y-62875000D03*
X94834300Y-62875000D03*
X93564300Y-62875000D03*
X92294300Y-62875000D03*
X91024300Y-62875000D03*
X89754300Y-62875000D03*
X88484300Y-62875000D03*
X87214300Y-62875000D03*
X85944300Y-62875000D03*
X84674300Y-62875000D03*
X83404300Y-62875000D03*
X82134300Y-62875000D03*
X80864300Y-62875000D03*
X79594300Y-62875000D03*
X78324300Y-62875000D03*
X77054300Y-62875000D03*
X75784300Y-62875000D03*
X74514300Y-62875000D03*
X73244300Y-62875000D03*
X71974300Y-62875000D03*
X70704300Y-62875000D03*
X69434300Y-62875000D03*
X68164300Y-62875000D03*
X66894300Y-62875000D03*
X65624300Y-62875000D03*
X64354300Y-62875000D03*
X63084300Y-62875000D03*
X61814300Y-62875000D03*
X60544300Y-62875000D03*
%TD*%
D19*
%TO.C,L1*%
X111269900Y-75892500D03*
X111269900Y-70888700D03*
%TD*%
D16*
%TO.C,R4*%
X65344900Y-90815000D03*
X63519900Y-90815000D03*
%TD*%
D20*
%TO.C,C2*%
X109847500Y-78697400D03*
X109847500Y-81647400D03*
%TD*%
D10*
%TO.C,U5*%
X68021100Y-71485600D03*
X67371100Y-71485600D03*
X66721100Y-71485600D03*
X66071100Y-71485600D03*
X65421100Y-71485600D03*
X64771100Y-71485600D03*
X64121100Y-71485600D03*
X63471100Y-71485600D03*
X62821100Y-71485600D03*
X62171100Y-71485600D03*
X61521100Y-71485600D03*
X60871100Y-71485600D03*
X60871100Y-77210600D03*
X61521100Y-77210600D03*
X62171100Y-77210600D03*
X62821100Y-77210600D03*
X63471100Y-77210600D03*
X64121100Y-77210600D03*
X64771100Y-77210600D03*
X65421100Y-77210600D03*
X66071100Y-77210600D03*
X66721100Y-77210600D03*
X67371100Y-77210600D03*
X68021100Y-77210600D03*
%TD*%
D11*
%TO.C,U9*%
X65065500Y-82356800D03*
X63795500Y-82356800D03*
X62525500Y-82356800D03*
X61255500Y-82356800D03*
X61255500Y-87306800D03*
X62525500Y-87306800D03*
X63795500Y-87306800D03*
X65065500Y-87306800D03*
%TD*%
D10*
%TO.C,U2*%
X95483100Y-71501000D03*
X94833100Y-71501000D03*
X94183100Y-71501000D03*
X93533100Y-71501000D03*
X92883100Y-71501000D03*
X92233100Y-71501000D03*
X91583100Y-71501000D03*
X90933100Y-71501000D03*
X90283100Y-71501000D03*
X89633100Y-71501000D03*
X88983100Y-71501000D03*
X88333100Y-71501000D03*
X88333100Y-77226000D03*
X88983100Y-77226000D03*
X89633100Y-77226000D03*
X90283100Y-77226000D03*
X90933100Y-77226000D03*
X91583100Y-77226000D03*
X92233100Y-77226000D03*
X92883100Y-77226000D03*
X93533100Y-77226000D03*
X94183100Y-77226000D03*
X94833100Y-77226000D03*
X95483100Y-77226000D03*
%TD*%
D21*
%TO.C,C3*%
X103379800Y-80264000D03*
X100429800Y-80264000D03*
%TD*%
D20*
%TO.C,C4*%
X106443900Y-71636200D03*
X106443900Y-74586200D03*
%TD*%
M02*
