M48
; DRILL file {KiCad 7.0.8} date Sun Jul 21 17:18:28 2024
; FORMAT={-:-/ absolute / inch / decimal}
; #@! TF.CreationDate,2024-07-21T17:18:28-05:00
; #@! TF.GenerationSoftware,Kicad,Pcbnew,7.0.8
; #@! TF.FileFunction,Plated,1,2,PTH
FMAT,2
INCH
; #@! TA.AperFunction,Plated,PTH,ViaDrill
T1C0.0100
; #@! TA.AperFunction,Plated,PTH,ComponentDrill
T2C0.0315
; #@! TA.AperFunction,Plated,PTH,ComponentDrill
T3C0.0394
; #@! TA.AperFunction,Plated,PTH,ViaDrill
T4C0.1063
%
G90
G05
T1
X2.4136Y-3.7664
X2.4356Y-3.7354
X2.522Y-2.706
X2.5636Y-3.3454
X2.59Y-3.16
X2.678Y-2.735
X2.678Y-2.972
X2.6836Y-3.7664
X2.7076Y-3.7364
X2.81Y-3.16
X2.8336Y-3.3454
X3.04Y-2.735
X3.04Y-2.972
X3.0736Y-3.1034
X3.0946Y-3.5324
X3.121Y-3.319
X3.1396Y-3.1234
X3.165Y-2.944
X3.2436Y-3.5234
X3.3486Y-3.5234
X3.371Y-3.366
X3.399Y-2.735
X3.399Y-2.972
X3.4456Y-3.5234
X3.4796Y-3.5234
X3.5136Y-3.5234
X3.557Y-3.319
X3.5786Y-3.5224
X3.603Y-2.944
X3.6696Y-3.5144
X3.759Y-2.735
X3.76Y-2.972
X3.807Y-3.366
X3.8446Y-3.5144
X3.886Y-3.16
X3.886Y-3.249
X4.009Y-2.881
X4.064Y-2.99
X4.076Y-2.735
X4.112Y-2.881
X4.144Y-3.16
X4.161Y-2.99
X4.178Y-2.735
X4.187Y-3.251
X4.189Y-3.146
X4.205Y-2.881
X4.236Y-3.16
X4.279Y-2.735
X4.372Y-2.735
X4.424Y-2.683
X4.462Y-2.739
X4.503Y-2.683
X4.549Y-2.739
X4.595Y-2.683
T2
X2.9336Y-3.7754
X3.0336Y-3.7754
X3.1336Y-3.7754
X3.2336Y-3.7754
X3.3336Y-3.7754
X3.4336Y-3.7754
X3.5336Y-3.7754
X3.6336Y-3.7754
X3.7336Y-3.7754
T3
X2.3336Y-3.9754
X2.3336Y-4.0754
X2.3336Y-4.5754
X2.3336Y-4.6754
X2.4336Y-3.9754
X2.4336Y-4.0754
X2.4336Y-4.5754
X2.4336Y-4.6754
X2.5336Y-3.9754
X2.5336Y-4.0754
X2.5336Y-4.5754
X2.5336Y-4.6754
X2.6336Y-3.9754
X2.6336Y-4.0754
X2.6336Y-4.5754
X2.6336Y-4.6754
X2.7336Y-3.9754
X2.7336Y-4.0754
X2.7336Y-4.5754
X2.7336Y-4.6754
X2.8336Y-3.9754
X2.8336Y-4.0754
X2.8336Y-4.5754
X2.8336Y-4.6754
X2.9336Y-3.9754
X2.9336Y-4.0754
X2.9336Y-4.5754
X2.9336Y-4.6754
X3.0336Y-3.9754
X3.0336Y-4.0754
X3.0336Y-4.5754
X3.0336Y-4.6754
X3.1336Y-3.9754
X3.1336Y-4.0754
X3.1336Y-4.5754
X3.1336Y-4.6754
X3.2336Y-3.9754
X3.2336Y-4.0754
X3.2336Y-4.5754
X3.2336Y-4.6754
X3.3336Y-4.5754
X3.3336Y-4.6754
X3.4336Y-4.5754
X3.4336Y-4.6754
X3.5336Y-4.5754
X3.5336Y-4.6754
X3.6336Y-4.5754
X3.6336Y-4.6754
X3.7336Y-4.1754
X3.7336Y-4.2754
X3.7336Y-4.5754
X3.7336Y-4.6754
X3.8336Y-4.5754
X3.8336Y-4.6754
X3.9336Y-4.5754
X3.9336Y-4.6754
X4.3Y-3.4
X4.3Y-3.5
X4.3Y-3.6
X4.5Y-3.4
X4.5Y-3.5
T4
X2.1181Y-2.4291
X4.5984Y-2.4291
T0
M30
