%TF.GenerationSoftware,KiCad,Pcbnew,7.0.8*%
%TF.CreationDate,2024-07-21T17:29:17-05:00*%
%TF.ProjectId,esdi_fmc,65736469-5f66-46d6-932e-6b696361645f,rev?*%
%TF.SameCoordinates,Original*%
%TF.FileFunction,Legend,Bot*%
%TF.FilePolarity,Positive*%
%FSLAX46Y46*%
G04 Gerber Fmt 4.6, Leading zero omitted, Abs format (unit mm)*
G04 Created by KiCad (PCBNEW 7.0.8) date 2024-07-21 17:29:17*
%MOMM*%
%LPD*%
G01*
G04 APERTURE LIST*
%ADD10C,0.150000*%
%ADD11C,0.508000*%
%ADD12C,0.120000*%
G04 APERTURE END LIST*
D10*
X98021619Y-102222493D02*
X98735904Y-102222493D01*
X98735904Y-102222493D02*
X98878761Y-102174874D01*
X98878761Y-102174874D02*
X98974000Y-102079636D01*
X98974000Y-102079636D02*
X99021619Y-101936779D01*
X99021619Y-101936779D02*
X99021619Y-101841541D01*
X99021619Y-102698684D02*
X98021619Y-102698684D01*
X98021619Y-102698684D02*
X98021619Y-103079636D01*
X98021619Y-103079636D02*
X98069238Y-103174874D01*
X98069238Y-103174874D02*
X98116857Y-103222493D01*
X98116857Y-103222493D02*
X98212095Y-103270112D01*
X98212095Y-103270112D02*
X98354952Y-103270112D01*
X98354952Y-103270112D02*
X98450190Y-103222493D01*
X98450190Y-103222493D02*
X98497809Y-103174874D01*
X98497809Y-103174874D02*
X98545428Y-103079636D01*
X98545428Y-103079636D02*
X98545428Y-102698684D01*
X98116857Y-103651065D02*
X98069238Y-103698684D01*
X98069238Y-103698684D02*
X98021619Y-103793922D01*
X98021619Y-103793922D02*
X98021619Y-104032017D01*
X98021619Y-104032017D02*
X98069238Y-104127255D01*
X98069238Y-104127255D02*
X98116857Y-104174874D01*
X98116857Y-104174874D02*
X98212095Y-104222493D01*
X98212095Y-104222493D02*
X98307333Y-104222493D01*
X98307333Y-104222493D02*
X98450190Y-104174874D01*
X98450190Y-104174874D02*
X99021619Y-103603446D01*
X99021619Y-103603446D02*
X99021619Y-104222493D01*
X98021619Y-105603446D02*
X98021619Y-105793922D01*
X98021619Y-105793922D02*
X98069238Y-105889160D01*
X98069238Y-105889160D02*
X98164476Y-105984398D01*
X98164476Y-105984398D02*
X98354952Y-106032017D01*
X98354952Y-106032017D02*
X98688285Y-106032017D01*
X98688285Y-106032017D02*
X98878761Y-105984398D01*
X98878761Y-105984398D02*
X98974000Y-105889160D01*
X98974000Y-105889160D02*
X99021619Y-105793922D01*
X99021619Y-105793922D02*
X99021619Y-105603446D01*
X99021619Y-105603446D02*
X98974000Y-105508208D01*
X98974000Y-105508208D02*
X98878761Y-105412970D01*
X98878761Y-105412970D02*
X98688285Y-105365351D01*
X98688285Y-105365351D02*
X98354952Y-105365351D01*
X98354952Y-105365351D02*
X98164476Y-105412970D01*
X98164476Y-105412970D02*
X98069238Y-105508208D01*
X98069238Y-105508208D02*
X98021619Y-105603446D01*
X98354952Y-106460589D02*
X99354952Y-106460589D01*
X98402571Y-106460589D02*
X98354952Y-106555827D01*
X98354952Y-106555827D02*
X98354952Y-106746303D01*
X98354952Y-106746303D02*
X98402571Y-106841541D01*
X98402571Y-106841541D02*
X98450190Y-106889160D01*
X98450190Y-106889160D02*
X98545428Y-106936779D01*
X98545428Y-106936779D02*
X98831142Y-106936779D01*
X98831142Y-106936779D02*
X98926380Y-106889160D01*
X98926380Y-106889160D02*
X98974000Y-106841541D01*
X98974000Y-106841541D02*
X99021619Y-106746303D01*
X99021619Y-106746303D02*
X99021619Y-106555827D01*
X99021619Y-106555827D02*
X98974000Y-106460589D01*
X98974000Y-107746303D02*
X99021619Y-107651065D01*
X99021619Y-107651065D02*
X99021619Y-107460589D01*
X99021619Y-107460589D02*
X98974000Y-107365351D01*
X98974000Y-107365351D02*
X98878761Y-107317732D01*
X98878761Y-107317732D02*
X98497809Y-107317732D01*
X98497809Y-107317732D02*
X98402571Y-107365351D01*
X98402571Y-107365351D02*
X98354952Y-107460589D01*
X98354952Y-107460589D02*
X98354952Y-107651065D01*
X98354952Y-107651065D02*
X98402571Y-107746303D01*
X98402571Y-107746303D02*
X98497809Y-107793922D01*
X98497809Y-107793922D02*
X98593047Y-107793922D01*
X98593047Y-107793922D02*
X98688285Y-107317732D01*
X98354952Y-108222494D02*
X99021619Y-108222494D01*
X98450190Y-108222494D02*
X98402571Y-108270113D01*
X98402571Y-108270113D02*
X98354952Y-108365351D01*
X98354952Y-108365351D02*
X98354952Y-108508208D01*
X98354952Y-108508208D02*
X98402571Y-108603446D01*
X98402571Y-108603446D02*
X98497809Y-108651065D01*
X98497809Y-108651065D02*
X99021619Y-108651065D01*
X98497809Y-109889161D02*
X98497809Y-110651066D01*
X98783523Y-110651066D02*
X98783523Y-109889161D01*
X99631619Y-101841541D02*
X100631619Y-102079636D01*
X100631619Y-102079636D02*
X99917333Y-102270112D01*
X99917333Y-102270112D02*
X100631619Y-102460588D01*
X100631619Y-102460588D02*
X99631619Y-102698684D01*
X100631619Y-103079636D02*
X99964952Y-103079636D01*
X100155428Y-103079636D02*
X100060190Y-103127255D01*
X100060190Y-103127255D02*
X100012571Y-103174874D01*
X100012571Y-103174874D02*
X99964952Y-103270112D01*
X99964952Y-103270112D02*
X99964952Y-103365350D01*
X100631619Y-103698684D02*
X99964952Y-103698684D01*
X99631619Y-103698684D02*
X99679238Y-103651065D01*
X99679238Y-103651065D02*
X99726857Y-103698684D01*
X99726857Y-103698684D02*
X99679238Y-103746303D01*
X99679238Y-103746303D02*
X99631619Y-103698684D01*
X99631619Y-103698684D02*
X99726857Y-103698684D01*
X99964952Y-104032017D02*
X99964952Y-104412969D01*
X99631619Y-104174874D02*
X100488761Y-104174874D01*
X100488761Y-104174874D02*
X100584000Y-104222493D01*
X100584000Y-104222493D02*
X100631619Y-104317731D01*
X100631619Y-104317731D02*
X100631619Y-104412969D01*
X100584000Y-105127255D02*
X100631619Y-105032017D01*
X100631619Y-105032017D02*
X100631619Y-104841541D01*
X100631619Y-104841541D02*
X100584000Y-104746303D01*
X100584000Y-104746303D02*
X100488761Y-104698684D01*
X100488761Y-104698684D02*
X100107809Y-104698684D01*
X100107809Y-104698684D02*
X100012571Y-104746303D01*
X100012571Y-104746303D02*
X99964952Y-104841541D01*
X99964952Y-104841541D02*
X99964952Y-105032017D01*
X99964952Y-105032017D02*
X100012571Y-105127255D01*
X100012571Y-105127255D02*
X100107809Y-105174874D01*
X100107809Y-105174874D02*
X100203047Y-105174874D01*
X100203047Y-105174874D02*
X100298285Y-104698684D01*
X100631619Y-106365351D02*
X99631619Y-106365351D01*
X99631619Y-106365351D02*
X99631619Y-106746303D01*
X99631619Y-106746303D02*
X99679238Y-106841541D01*
X99679238Y-106841541D02*
X99726857Y-106889160D01*
X99726857Y-106889160D02*
X99822095Y-106936779D01*
X99822095Y-106936779D02*
X99964952Y-106936779D01*
X99964952Y-106936779D02*
X100060190Y-106889160D01*
X100060190Y-106889160D02*
X100107809Y-106841541D01*
X100107809Y-106841541D02*
X100155428Y-106746303D01*
X100155428Y-106746303D02*
X100155428Y-106365351D01*
X100631619Y-107365351D02*
X99964952Y-107365351D01*
X100155428Y-107365351D02*
X100060190Y-107412970D01*
X100060190Y-107412970D02*
X100012571Y-107460589D01*
X100012571Y-107460589D02*
X99964952Y-107555827D01*
X99964952Y-107555827D02*
X99964952Y-107651065D01*
X100631619Y-108127256D02*
X100584000Y-108032018D01*
X100584000Y-108032018D02*
X100536380Y-107984399D01*
X100536380Y-107984399D02*
X100441142Y-107936780D01*
X100441142Y-107936780D02*
X100155428Y-107936780D01*
X100155428Y-107936780D02*
X100060190Y-107984399D01*
X100060190Y-107984399D02*
X100012571Y-108032018D01*
X100012571Y-108032018D02*
X99964952Y-108127256D01*
X99964952Y-108127256D02*
X99964952Y-108270113D01*
X99964952Y-108270113D02*
X100012571Y-108365351D01*
X100012571Y-108365351D02*
X100060190Y-108412970D01*
X100060190Y-108412970D02*
X100155428Y-108460589D01*
X100155428Y-108460589D02*
X100441142Y-108460589D01*
X100441142Y-108460589D02*
X100536380Y-108412970D01*
X100536380Y-108412970D02*
X100584000Y-108365351D01*
X100584000Y-108365351D02*
X100631619Y-108270113D01*
X100631619Y-108270113D02*
X100631619Y-108127256D01*
X99964952Y-108746304D02*
X99964952Y-109127256D01*
X99631619Y-108889161D02*
X100488761Y-108889161D01*
X100488761Y-108889161D02*
X100584000Y-108936780D01*
X100584000Y-108936780D02*
X100631619Y-109032018D01*
X100631619Y-109032018D02*
X100631619Y-109127256D01*
X100584000Y-109841542D02*
X100631619Y-109746304D01*
X100631619Y-109746304D02*
X100631619Y-109555828D01*
X100631619Y-109555828D02*
X100584000Y-109460590D01*
X100584000Y-109460590D02*
X100488761Y-109412971D01*
X100488761Y-109412971D02*
X100107809Y-109412971D01*
X100107809Y-109412971D02*
X100012571Y-109460590D01*
X100012571Y-109460590D02*
X99964952Y-109555828D01*
X99964952Y-109555828D02*
X99964952Y-109746304D01*
X99964952Y-109746304D02*
X100012571Y-109841542D01*
X100012571Y-109841542D02*
X100107809Y-109889161D01*
X100107809Y-109889161D02*
X100203047Y-109889161D01*
X100203047Y-109889161D02*
X100298285Y-109412971D01*
X100584000Y-110746304D02*
X100631619Y-110651066D01*
X100631619Y-110651066D02*
X100631619Y-110460590D01*
X100631619Y-110460590D02*
X100584000Y-110365352D01*
X100584000Y-110365352D02*
X100536380Y-110317733D01*
X100536380Y-110317733D02*
X100441142Y-110270114D01*
X100441142Y-110270114D02*
X100155428Y-110270114D01*
X100155428Y-110270114D02*
X100060190Y-110317733D01*
X100060190Y-110317733D02*
X100012571Y-110365352D01*
X100012571Y-110365352D02*
X99964952Y-110460590D01*
X99964952Y-110460590D02*
X99964952Y-110651066D01*
X99964952Y-110651066D02*
X100012571Y-110746304D01*
X99964952Y-111032019D02*
X99964952Y-111412971D01*
X99631619Y-111174876D02*
X100488761Y-111174876D01*
X100488761Y-111174876D02*
X100584000Y-111222495D01*
X100584000Y-111222495D02*
X100631619Y-111317733D01*
X100631619Y-111317733D02*
X100631619Y-111412971D01*
X100584000Y-112127257D02*
X100631619Y-112032019D01*
X100631619Y-112032019D02*
X100631619Y-111841543D01*
X100631619Y-111841543D02*
X100584000Y-111746305D01*
X100584000Y-111746305D02*
X100488761Y-111698686D01*
X100488761Y-111698686D02*
X100107809Y-111698686D01*
X100107809Y-111698686D02*
X100012571Y-111746305D01*
X100012571Y-111746305D02*
X99964952Y-111841543D01*
X99964952Y-111841543D02*
X99964952Y-112032019D01*
X99964952Y-112032019D02*
X100012571Y-112127257D01*
X100012571Y-112127257D02*
X100107809Y-112174876D01*
X100107809Y-112174876D02*
X100203047Y-112174876D01*
X100203047Y-112174876D02*
X100298285Y-111698686D01*
X100631619Y-113032019D02*
X99631619Y-113032019D01*
X100584000Y-113032019D02*
X100631619Y-112936781D01*
X100631619Y-112936781D02*
X100631619Y-112746305D01*
X100631619Y-112746305D02*
X100584000Y-112651067D01*
X100584000Y-112651067D02*
X100536380Y-112603448D01*
X100536380Y-112603448D02*
X100441142Y-112555829D01*
X100441142Y-112555829D02*
X100155428Y-112555829D01*
X100155428Y-112555829D02*
X100060190Y-112603448D01*
X100060190Y-112603448D02*
X100012571Y-112651067D01*
X100012571Y-112651067D02*
X99964952Y-112746305D01*
X99964952Y-112746305D02*
X99964952Y-112936781D01*
X99964952Y-112936781D02*
X100012571Y-113032019D01*
X96999249Y-124587000D02*
X97094487Y-124634619D01*
X97094487Y-124634619D02*
X97284963Y-124634619D01*
X97284963Y-124634619D02*
X97380201Y-124587000D01*
X97380201Y-124587000D02*
X97427820Y-124539380D01*
X97427820Y-124539380D02*
X97475439Y-124444142D01*
X97475439Y-124444142D02*
X97475439Y-124158428D01*
X97475439Y-124158428D02*
X97427820Y-124063190D01*
X97427820Y-124063190D02*
X97380201Y-124015571D01*
X97380201Y-124015571D02*
X97284963Y-123967952D01*
X97284963Y-123967952D02*
X97094487Y-123967952D01*
X97094487Y-123967952D02*
X96999249Y-124015571D01*
X96665915Y-123967952D02*
X96475439Y-124634619D01*
X96475439Y-124634619D02*
X96284963Y-124158428D01*
X96284963Y-124158428D02*
X96094487Y-124634619D01*
X96094487Y-124634619D02*
X95904011Y-123967952D01*
X95570677Y-124587000D02*
X95475439Y-124634619D01*
X95475439Y-124634619D02*
X95284963Y-124634619D01*
X95284963Y-124634619D02*
X95189725Y-124587000D01*
X95189725Y-124587000D02*
X95142106Y-124491761D01*
X95142106Y-124491761D02*
X95142106Y-124444142D01*
X95142106Y-124444142D02*
X95189725Y-124348904D01*
X95189725Y-124348904D02*
X95284963Y-124301285D01*
X95284963Y-124301285D02*
X95427820Y-124301285D01*
X95427820Y-124301285D02*
X95523058Y-124253666D01*
X95523058Y-124253666D02*
X95570677Y-124158428D01*
X95570677Y-124158428D02*
X95570677Y-124110809D01*
X95570677Y-124110809D02*
X95523058Y-124015571D01*
X95523058Y-124015571D02*
X95427820Y-123967952D01*
X95427820Y-123967952D02*
X95284963Y-123967952D01*
X95284963Y-123967952D02*
X95189725Y-124015571D01*
X94713534Y-124634619D02*
X94713534Y-123967952D01*
X94713534Y-123634619D02*
X94761153Y-123682238D01*
X94761153Y-123682238D02*
X94713534Y-123729857D01*
X94713534Y-123729857D02*
X94665915Y-123682238D01*
X94665915Y-123682238D02*
X94713534Y-123634619D01*
X94713534Y-123634619D02*
X94713534Y-123729857D01*
X94237344Y-124634619D02*
X94237344Y-123967952D01*
X94237344Y-124063190D02*
X94189725Y-124015571D01*
X94189725Y-124015571D02*
X94094487Y-123967952D01*
X94094487Y-123967952D02*
X93951630Y-123967952D01*
X93951630Y-123967952D02*
X93856392Y-124015571D01*
X93856392Y-124015571D02*
X93808773Y-124110809D01*
X93808773Y-124110809D02*
X93808773Y-124634619D01*
X93808773Y-124110809D02*
X93761154Y-124015571D01*
X93761154Y-124015571D02*
X93665916Y-123967952D01*
X93665916Y-123967952D02*
X93523059Y-123967952D01*
X93523059Y-123967952D02*
X93427820Y-124015571D01*
X93427820Y-124015571D02*
X93380201Y-124110809D01*
X93380201Y-124110809D02*
X93380201Y-124634619D01*
X92904011Y-124634619D02*
X92904011Y-123967952D01*
X92904011Y-124063190D02*
X92856392Y-124015571D01*
X92856392Y-124015571D02*
X92761154Y-123967952D01*
X92761154Y-123967952D02*
X92618297Y-123967952D01*
X92618297Y-123967952D02*
X92523059Y-124015571D01*
X92523059Y-124015571D02*
X92475440Y-124110809D01*
X92475440Y-124110809D02*
X92475440Y-124634619D01*
X92475440Y-124110809D02*
X92427821Y-124015571D01*
X92427821Y-124015571D02*
X92332583Y-123967952D01*
X92332583Y-123967952D02*
X92189726Y-123967952D01*
X92189726Y-123967952D02*
X92094487Y-124015571D01*
X92094487Y-124015571D02*
X92046868Y-124110809D01*
X92046868Y-124110809D02*
X92046868Y-124634619D01*
X91427821Y-124634619D02*
X91523059Y-124587000D01*
X91523059Y-124587000D02*
X91570678Y-124539380D01*
X91570678Y-124539380D02*
X91618297Y-124444142D01*
X91618297Y-124444142D02*
X91618297Y-124158428D01*
X91618297Y-124158428D02*
X91570678Y-124063190D01*
X91570678Y-124063190D02*
X91523059Y-124015571D01*
X91523059Y-124015571D02*
X91427821Y-123967952D01*
X91427821Y-123967952D02*
X91284964Y-123967952D01*
X91284964Y-123967952D02*
X91189726Y-124015571D01*
X91189726Y-124015571D02*
X91142107Y-124063190D01*
X91142107Y-124063190D02*
X91094488Y-124158428D01*
X91094488Y-124158428D02*
X91094488Y-124444142D01*
X91094488Y-124444142D02*
X91142107Y-124539380D01*
X91142107Y-124539380D02*
X91189726Y-124587000D01*
X91189726Y-124587000D02*
X91284964Y-124634619D01*
X91284964Y-124634619D02*
X91427821Y-124634619D01*
X90665916Y-123967952D02*
X90665916Y-124634619D01*
X90665916Y-124063190D02*
X90618297Y-124015571D01*
X90618297Y-124015571D02*
X90523059Y-123967952D01*
X90523059Y-123967952D02*
X90380202Y-123967952D01*
X90380202Y-123967952D02*
X90284964Y-124015571D01*
X90284964Y-124015571D02*
X90237345Y-124110809D01*
X90237345Y-124110809D02*
X90237345Y-124634619D01*
X89808773Y-124587000D02*
X89713535Y-124634619D01*
X89713535Y-124634619D02*
X89523059Y-124634619D01*
X89523059Y-124634619D02*
X89427821Y-124587000D01*
X89427821Y-124587000D02*
X89380202Y-124491761D01*
X89380202Y-124491761D02*
X89380202Y-124444142D01*
X89380202Y-124444142D02*
X89427821Y-124348904D01*
X89427821Y-124348904D02*
X89523059Y-124301285D01*
X89523059Y-124301285D02*
X89665916Y-124301285D01*
X89665916Y-124301285D02*
X89761154Y-124253666D01*
X89761154Y-124253666D02*
X89808773Y-124158428D01*
X89808773Y-124158428D02*
X89808773Y-124110809D01*
X89808773Y-124110809D02*
X89761154Y-124015571D01*
X89761154Y-124015571D02*
X89665916Y-123967952D01*
X89665916Y-123967952D02*
X89523059Y-123967952D01*
X89523059Y-123967952D02*
X89427821Y-124015571D01*
X85665916Y-124110809D02*
X85332583Y-124110809D01*
X85189726Y-124634619D02*
X85665916Y-124634619D01*
X85665916Y-124634619D02*
X85665916Y-123634619D01*
X85665916Y-123634619D02*
X85189726Y-123634619D01*
X84808773Y-124587000D02*
X84665916Y-124634619D01*
X84665916Y-124634619D02*
X84427821Y-124634619D01*
X84427821Y-124634619D02*
X84332583Y-124587000D01*
X84332583Y-124587000D02*
X84284964Y-124539380D01*
X84284964Y-124539380D02*
X84237345Y-124444142D01*
X84237345Y-124444142D02*
X84237345Y-124348904D01*
X84237345Y-124348904D02*
X84284964Y-124253666D01*
X84284964Y-124253666D02*
X84332583Y-124206047D01*
X84332583Y-124206047D02*
X84427821Y-124158428D01*
X84427821Y-124158428D02*
X84618297Y-124110809D01*
X84618297Y-124110809D02*
X84713535Y-124063190D01*
X84713535Y-124063190D02*
X84761154Y-124015571D01*
X84761154Y-124015571D02*
X84808773Y-123920333D01*
X84808773Y-123920333D02*
X84808773Y-123825095D01*
X84808773Y-123825095D02*
X84761154Y-123729857D01*
X84761154Y-123729857D02*
X84713535Y-123682238D01*
X84713535Y-123682238D02*
X84618297Y-123634619D01*
X84618297Y-123634619D02*
X84380202Y-123634619D01*
X84380202Y-123634619D02*
X84237345Y-123682238D01*
X83808773Y-124634619D02*
X83808773Y-123634619D01*
X83808773Y-123634619D02*
X83570678Y-123634619D01*
X83570678Y-123634619D02*
X83427821Y-123682238D01*
X83427821Y-123682238D02*
X83332583Y-123777476D01*
X83332583Y-123777476D02*
X83284964Y-123872714D01*
X83284964Y-123872714D02*
X83237345Y-124063190D01*
X83237345Y-124063190D02*
X83237345Y-124206047D01*
X83237345Y-124206047D02*
X83284964Y-124396523D01*
X83284964Y-124396523D02*
X83332583Y-124491761D01*
X83332583Y-124491761D02*
X83427821Y-124587000D01*
X83427821Y-124587000D02*
X83570678Y-124634619D01*
X83570678Y-124634619D02*
X83808773Y-124634619D01*
X82808773Y-124634619D02*
X82808773Y-123634619D01*
X82332583Y-124253666D02*
X81570679Y-124253666D01*
X80761155Y-124110809D02*
X81094488Y-124110809D01*
X81094488Y-124634619D02*
X81094488Y-123634619D01*
X81094488Y-123634619D02*
X80618298Y-123634619D01*
X80237345Y-124634619D02*
X80237345Y-123634619D01*
X80237345Y-123634619D02*
X79904012Y-124348904D01*
X79904012Y-124348904D02*
X79570679Y-123634619D01*
X79570679Y-123634619D02*
X79570679Y-124634619D01*
X78523060Y-124539380D02*
X78570679Y-124587000D01*
X78570679Y-124587000D02*
X78713536Y-124634619D01*
X78713536Y-124634619D02*
X78808774Y-124634619D01*
X78808774Y-124634619D02*
X78951631Y-124587000D01*
X78951631Y-124587000D02*
X79046869Y-124491761D01*
X79046869Y-124491761D02*
X79094488Y-124396523D01*
X79094488Y-124396523D02*
X79142107Y-124206047D01*
X79142107Y-124206047D02*
X79142107Y-124063190D01*
X79142107Y-124063190D02*
X79094488Y-123872714D01*
X79094488Y-123872714D02*
X79046869Y-123777476D01*
X79046869Y-123777476D02*
X78951631Y-123682238D01*
X78951631Y-123682238D02*
X78808774Y-123634619D01*
X78808774Y-123634619D02*
X78713536Y-123634619D01*
X78713536Y-123634619D02*
X78570679Y-123682238D01*
X78570679Y-123682238D02*
X78523060Y-123729857D01*
X77380202Y-124348904D02*
X76904012Y-124348904D01*
X77475440Y-124634619D02*
X77142107Y-123634619D01*
X77142107Y-123634619D02*
X76808774Y-124634619D01*
X76046869Y-124634619D02*
X76046869Y-123634619D01*
X76046869Y-124587000D02*
X76142107Y-124634619D01*
X76142107Y-124634619D02*
X76332583Y-124634619D01*
X76332583Y-124634619D02*
X76427821Y-124587000D01*
X76427821Y-124587000D02*
X76475440Y-124539380D01*
X76475440Y-124539380D02*
X76523059Y-124444142D01*
X76523059Y-124444142D02*
X76523059Y-124158428D01*
X76523059Y-124158428D02*
X76475440Y-124063190D01*
X76475440Y-124063190D02*
X76427821Y-124015571D01*
X76427821Y-124015571D02*
X76332583Y-123967952D01*
X76332583Y-123967952D02*
X76142107Y-123967952D01*
X76142107Y-123967952D02*
X76046869Y-124015571D01*
X75142107Y-124634619D02*
X75142107Y-124110809D01*
X75142107Y-124110809D02*
X75189726Y-124015571D01*
X75189726Y-124015571D02*
X75284964Y-123967952D01*
X75284964Y-123967952D02*
X75475440Y-123967952D01*
X75475440Y-123967952D02*
X75570678Y-124015571D01*
X75142107Y-124587000D02*
X75237345Y-124634619D01*
X75237345Y-124634619D02*
X75475440Y-124634619D01*
X75475440Y-124634619D02*
X75570678Y-124587000D01*
X75570678Y-124587000D02*
X75618297Y-124491761D01*
X75618297Y-124491761D02*
X75618297Y-124396523D01*
X75618297Y-124396523D02*
X75570678Y-124301285D01*
X75570678Y-124301285D02*
X75475440Y-124253666D01*
X75475440Y-124253666D02*
X75237345Y-124253666D01*
X75237345Y-124253666D02*
X75142107Y-124206047D01*
X74665916Y-123967952D02*
X74665916Y-124967952D01*
X74665916Y-124015571D02*
X74570678Y-123967952D01*
X74570678Y-123967952D02*
X74380202Y-123967952D01*
X74380202Y-123967952D02*
X74284964Y-124015571D01*
X74284964Y-124015571D02*
X74237345Y-124063190D01*
X74237345Y-124063190D02*
X74189726Y-124158428D01*
X74189726Y-124158428D02*
X74189726Y-124444142D01*
X74189726Y-124444142D02*
X74237345Y-124539380D01*
X74237345Y-124539380D02*
X74284964Y-124587000D01*
X74284964Y-124587000D02*
X74380202Y-124634619D01*
X74380202Y-124634619D02*
X74570678Y-124634619D01*
X74570678Y-124634619D02*
X74665916Y-124587000D01*
X73904011Y-123967952D02*
X73523059Y-123967952D01*
X73761154Y-123634619D02*
X73761154Y-124491761D01*
X73761154Y-124491761D02*
X73713535Y-124587000D01*
X73713535Y-124587000D02*
X73618297Y-124634619D01*
X73618297Y-124634619D02*
X73523059Y-124634619D01*
X72808773Y-124587000D02*
X72904011Y-124634619D01*
X72904011Y-124634619D02*
X73094487Y-124634619D01*
X73094487Y-124634619D02*
X73189725Y-124587000D01*
X73189725Y-124587000D02*
X73237344Y-124491761D01*
X73237344Y-124491761D02*
X73237344Y-124110809D01*
X73237344Y-124110809D02*
X73189725Y-124015571D01*
X73189725Y-124015571D02*
X73094487Y-123967952D01*
X73094487Y-123967952D02*
X72904011Y-123967952D01*
X72904011Y-123967952D02*
X72808773Y-124015571D01*
X72808773Y-124015571D02*
X72761154Y-124110809D01*
X72761154Y-124110809D02*
X72761154Y-124206047D01*
X72761154Y-124206047D02*
X73237344Y-124301285D01*
X72332582Y-124634619D02*
X72332582Y-123967952D01*
X72332582Y-124158428D02*
X72284963Y-124063190D01*
X72284963Y-124063190D02*
X72237344Y-124015571D01*
X72237344Y-124015571D02*
X72142106Y-123967952D01*
X72142106Y-123967952D02*
X72046868Y-123967952D01*
X109971205Y-65869819D02*
X109971205Y-64869819D01*
X110542633Y-65869819D02*
X110114062Y-65298390D01*
X110542633Y-64869819D02*
X109971205Y-65441247D01*
X111495014Y-65869819D02*
X110923586Y-65869819D01*
X111209300Y-65869819D02*
X111209300Y-64869819D01*
X111209300Y-64869819D02*
X111114062Y-65012676D01*
X111114062Y-65012676D02*
X111018824Y-65107914D01*
X111018824Y-65107914D02*
X110923586Y-65155533D01*
X58718824Y-54154104D02*
X59195014Y-54154104D01*
X58623586Y-54439819D02*
X58956919Y-53439819D01*
X58956919Y-53439819D02*
X59290252Y-54439819D01*
X60052157Y-53773152D02*
X60052157Y-54439819D01*
X59814062Y-53392200D02*
X59575967Y-54106485D01*
X59575967Y-54106485D02*
X60195014Y-54106485D01*
X60766443Y-53439819D02*
X60861681Y-53439819D01*
X60861681Y-53439819D02*
X60956919Y-53487438D01*
X60956919Y-53487438D02*
X61004538Y-53535057D01*
X61004538Y-53535057D02*
X61052157Y-53630295D01*
X61052157Y-53630295D02*
X61099776Y-53820771D01*
X61099776Y-53820771D02*
X61099776Y-54058866D01*
X61099776Y-54058866D02*
X61052157Y-54249342D01*
X61052157Y-54249342D02*
X61004538Y-54344580D01*
X61004538Y-54344580D02*
X60956919Y-54392200D01*
X60956919Y-54392200D02*
X60861681Y-54439819D01*
X60861681Y-54439819D02*
X60766443Y-54439819D01*
X60766443Y-54439819D02*
X60671205Y-54392200D01*
X60671205Y-54392200D02*
X60623586Y-54344580D01*
X60623586Y-54344580D02*
X60575967Y-54249342D01*
X60575967Y-54249342D02*
X60528348Y-54058866D01*
X60528348Y-54058866D02*
X60528348Y-53820771D01*
X60528348Y-53820771D02*
X60575967Y-53630295D01*
X60575967Y-53630295D02*
X60623586Y-53535057D01*
X60623586Y-53535057D02*
X60671205Y-53487438D01*
X60671205Y-53487438D02*
X60766443Y-53439819D01*
X58695014Y-65869819D02*
X58695014Y-64869819D01*
X59266442Y-65869819D02*
X58837871Y-65298390D01*
X59266442Y-64869819D02*
X58695014Y-65441247D01*
X60123585Y-65203152D02*
X60123585Y-65869819D01*
X59885490Y-64822200D02*
X59647395Y-65536485D01*
X59647395Y-65536485D02*
X60266442Y-65536485D01*
X60837871Y-64869819D02*
X60933109Y-64869819D01*
X60933109Y-64869819D02*
X61028347Y-64917438D01*
X61028347Y-64917438D02*
X61075966Y-64965057D01*
X61075966Y-64965057D02*
X61123585Y-65060295D01*
X61123585Y-65060295D02*
X61171204Y-65250771D01*
X61171204Y-65250771D02*
X61171204Y-65488866D01*
X61171204Y-65488866D02*
X61123585Y-65679342D01*
X61123585Y-65679342D02*
X61075966Y-65774580D01*
X61075966Y-65774580D02*
X61028347Y-65822200D01*
X61028347Y-65822200D02*
X60933109Y-65869819D01*
X60933109Y-65869819D02*
X60837871Y-65869819D01*
X60837871Y-65869819D02*
X60742633Y-65822200D01*
X60742633Y-65822200D02*
X60695014Y-65774580D01*
X60695014Y-65774580D02*
X60647395Y-65679342D01*
X60647395Y-65679342D02*
X60599776Y-65488866D01*
X60599776Y-65488866D02*
X60599776Y-65250771D01*
X60599776Y-65250771D02*
X60647395Y-65060295D01*
X60647395Y-65060295D02*
X60695014Y-64965057D01*
X60695014Y-64965057D02*
X60742633Y-64917438D01*
X60742633Y-64917438D02*
X60837871Y-64869819D01*
X109995014Y-54154104D02*
X110471204Y-54154104D01*
X109899776Y-54439819D02*
X110233109Y-53439819D01*
X110233109Y-53439819D02*
X110566442Y-54439819D01*
X111423585Y-54439819D02*
X110852157Y-54439819D01*
X111137871Y-54439819D02*
X111137871Y-53439819D01*
X111137871Y-53439819D02*
X111042633Y-53582676D01*
X111042633Y-53582676D02*
X110947395Y-53677914D01*
X110947395Y-53677914D02*
X110852157Y-53725533D01*
X83919119Y-101911666D02*
X84633404Y-101911666D01*
X84633404Y-101911666D02*
X84776261Y-101864047D01*
X84776261Y-101864047D02*
X84871500Y-101768809D01*
X84871500Y-101768809D02*
X84919119Y-101625952D01*
X84919119Y-101625952D02*
X84919119Y-101530714D01*
X83919119Y-102292619D02*
X83919119Y-102911666D01*
X83919119Y-102911666D02*
X84300071Y-102578333D01*
X84300071Y-102578333D02*
X84300071Y-102721190D01*
X84300071Y-102721190D02*
X84347690Y-102816428D01*
X84347690Y-102816428D02*
X84395309Y-102864047D01*
X84395309Y-102864047D02*
X84490547Y-102911666D01*
X84490547Y-102911666D02*
X84728642Y-102911666D01*
X84728642Y-102911666D02*
X84823880Y-102864047D01*
X84823880Y-102864047D02*
X84871500Y-102816428D01*
X84871500Y-102816428D02*
X84919119Y-102721190D01*
X84919119Y-102721190D02*
X84919119Y-102435476D01*
X84919119Y-102435476D02*
X84871500Y-102340238D01*
X84871500Y-102340238D02*
X84823880Y-102292619D01*
X101699119Y-117151666D02*
X102413404Y-117151666D01*
X102413404Y-117151666D02*
X102556261Y-117104047D01*
X102556261Y-117104047D02*
X102651500Y-117008809D01*
X102651500Y-117008809D02*
X102699119Y-116865952D01*
X102699119Y-116865952D02*
X102699119Y-116770714D01*
X101794357Y-117580238D02*
X101746738Y-117627857D01*
X101746738Y-117627857D02*
X101699119Y-117723095D01*
X101699119Y-117723095D02*
X101699119Y-117961190D01*
X101699119Y-117961190D02*
X101746738Y-118056428D01*
X101746738Y-118056428D02*
X101794357Y-118104047D01*
X101794357Y-118104047D02*
X101889595Y-118151666D01*
X101889595Y-118151666D02*
X101984833Y-118151666D01*
X101984833Y-118151666D02*
X102127690Y-118104047D01*
X102127690Y-118104047D02*
X102699119Y-117532619D01*
X102699119Y-117532619D02*
X102699119Y-118151666D01*
X95667633Y-103179819D02*
X95667633Y-103894104D01*
X95667633Y-103894104D02*
X95715252Y-104036961D01*
X95715252Y-104036961D02*
X95810490Y-104132200D01*
X95810490Y-104132200D02*
X95953347Y-104179819D01*
X95953347Y-104179819D02*
X96048585Y-104179819D01*
X95191442Y-104179819D02*
X95191442Y-103179819D01*
X95191442Y-103179819D02*
X94810490Y-103179819D01*
X94810490Y-103179819D02*
X94715252Y-103227438D01*
X94715252Y-103227438D02*
X94667633Y-103275057D01*
X94667633Y-103275057D02*
X94620014Y-103370295D01*
X94620014Y-103370295D02*
X94620014Y-103513152D01*
X94620014Y-103513152D02*
X94667633Y-103608390D01*
X94667633Y-103608390D02*
X94715252Y-103656009D01*
X94715252Y-103656009D02*
X94810490Y-103703628D01*
X94810490Y-103703628D02*
X95191442Y-103703628D01*
X94239061Y-103275057D02*
X94191442Y-103227438D01*
X94191442Y-103227438D02*
X94096204Y-103179819D01*
X94096204Y-103179819D02*
X93858109Y-103179819D01*
X93858109Y-103179819D02*
X93762871Y-103227438D01*
X93762871Y-103227438D02*
X93715252Y-103275057D01*
X93715252Y-103275057D02*
X93667633Y-103370295D01*
X93667633Y-103370295D02*
X93667633Y-103465533D01*
X93667633Y-103465533D02*
X93715252Y-103608390D01*
X93715252Y-103608390D02*
X94286680Y-104179819D01*
X94286680Y-104179819D02*
X93667633Y-104179819D01*
D11*
%TO.C,J1*%
X114341500Y-53985000D02*
G75*
G03*
X114341500Y-53985000I-381000J0D01*
G01*
D12*
%TO.C,J3*%
X57944300Y-104845000D02*
X57944300Y-99645000D01*
X80864300Y-104845000D02*
X57944300Y-104845000D01*
X80864300Y-104845000D02*
X80864300Y-102245000D01*
X82134300Y-104845000D02*
X83464300Y-104845000D01*
X83464300Y-104845000D02*
X83464300Y-103515000D01*
X80864300Y-102245000D02*
X83464300Y-102245000D01*
X83464300Y-102245000D02*
X83464300Y-99645000D01*
X83464300Y-99645000D02*
X57944300Y-99645000D01*
%TO.C,J2*%
X57944300Y-120085000D02*
X57944300Y-114885000D01*
X98644300Y-120085000D02*
X57944300Y-120085000D01*
X98644300Y-120085000D02*
X98644300Y-117485000D01*
X99914300Y-120085000D02*
X101244300Y-120085000D01*
X101244300Y-120085000D02*
X101244300Y-118755000D01*
X98644300Y-117485000D02*
X101244300Y-117485000D01*
X101244300Y-117485000D02*
X101244300Y-114885000D01*
X101244300Y-114885000D02*
X57944300Y-114885000D01*
%TO.C,JP2*%
X96164300Y-109925000D02*
X93504300Y-109925000D01*
X96164300Y-107325000D02*
X96164300Y-109925000D01*
X96164300Y-107325000D02*
X93504300Y-107325000D01*
X96164300Y-106055000D02*
X96164300Y-104725000D01*
X96164300Y-104725000D02*
X94834300Y-104725000D01*
X93504300Y-107325000D02*
X93504300Y-109925000D01*
%TD*%
M02*
