%TF.GenerationSoftware,KiCad,Pcbnew,7.0.8*%
%TF.CreationDate,2024-07-21T17:29:17-05:00*%
%TF.ProjectId,esdi_fmc,65736469-5f66-46d6-932e-6b696361645f,rev?*%
%TF.SameCoordinates,Original*%
%TF.FileFunction,Legend,Top*%
%TF.FilePolarity,Positive*%
%FSLAX46Y46*%
G04 Gerber Fmt 4.6, Leading zero omitted, Abs format (unit mm)*
G04 Created by KiCad (PCBNEW 7.0.8) date 2024-07-21 17:29:17*
%MOMM*%
%LPD*%
G01*
G04 APERTURE LIST*
%ADD10C,0.150000*%
%ADD11C,0.120000*%
%ADD12C,0.152400*%
%ADD13C,0.508000*%
G04 APERTURE END LIST*
D10*
X116827419Y-89763430D02*
X116827419Y-90239620D01*
X116827419Y-90239620D02*
X117303609Y-90287239D01*
X117303609Y-90287239D02*
X117255990Y-90239620D01*
X117255990Y-90239620D02*
X117208371Y-90144382D01*
X117208371Y-90144382D02*
X117208371Y-89906287D01*
X117208371Y-89906287D02*
X117255990Y-89811049D01*
X117255990Y-89811049D02*
X117303609Y-89763430D01*
X117303609Y-89763430D02*
X117398847Y-89715811D01*
X117398847Y-89715811D02*
X117636942Y-89715811D01*
X117636942Y-89715811D02*
X117732180Y-89763430D01*
X117732180Y-89763430D02*
X117779800Y-89811049D01*
X117779800Y-89811049D02*
X117827419Y-89906287D01*
X117827419Y-89906287D02*
X117827419Y-90144382D01*
X117827419Y-90144382D02*
X117779800Y-90239620D01*
X117779800Y-90239620D02*
X117732180Y-90287239D01*
X116827419Y-89430096D02*
X117827419Y-89096763D01*
X117827419Y-89096763D02*
X116827419Y-88763430D01*
X103380619Y-92690792D02*
X102904428Y-93024125D01*
X103380619Y-93262220D02*
X102380619Y-93262220D01*
X102380619Y-93262220D02*
X102380619Y-92881268D01*
X102380619Y-92881268D02*
X102428238Y-92786030D01*
X102428238Y-92786030D02*
X102475857Y-92738411D01*
X102475857Y-92738411D02*
X102571095Y-92690792D01*
X102571095Y-92690792D02*
X102713952Y-92690792D01*
X102713952Y-92690792D02*
X102809190Y-92738411D01*
X102809190Y-92738411D02*
X102856809Y-92786030D01*
X102856809Y-92786030D02*
X102904428Y-92881268D01*
X102904428Y-92881268D02*
X102904428Y-93262220D01*
X103333000Y-91881268D02*
X103380619Y-91976506D01*
X103380619Y-91976506D02*
X103380619Y-92166982D01*
X103380619Y-92166982D02*
X103333000Y-92262220D01*
X103333000Y-92262220D02*
X103237761Y-92309839D01*
X103237761Y-92309839D02*
X102856809Y-92309839D01*
X102856809Y-92309839D02*
X102761571Y-92262220D01*
X102761571Y-92262220D02*
X102713952Y-92166982D01*
X102713952Y-92166982D02*
X102713952Y-91976506D01*
X102713952Y-91976506D02*
X102761571Y-91881268D01*
X102761571Y-91881268D02*
X102856809Y-91833649D01*
X102856809Y-91833649D02*
X102952047Y-91833649D01*
X102952047Y-91833649D02*
X103047285Y-92309839D01*
X102713952Y-90976506D02*
X103523476Y-90976506D01*
X103523476Y-90976506D02*
X103618714Y-91024125D01*
X103618714Y-91024125D02*
X103666333Y-91071744D01*
X103666333Y-91071744D02*
X103713952Y-91166982D01*
X103713952Y-91166982D02*
X103713952Y-91309839D01*
X103713952Y-91309839D02*
X103666333Y-91405077D01*
X103333000Y-90976506D02*
X103380619Y-91071744D01*
X103380619Y-91071744D02*
X103380619Y-91262220D01*
X103380619Y-91262220D02*
X103333000Y-91357458D01*
X103333000Y-91357458D02*
X103285380Y-91405077D01*
X103285380Y-91405077D02*
X103190142Y-91452696D01*
X103190142Y-91452696D02*
X102904428Y-91452696D01*
X102904428Y-91452696D02*
X102809190Y-91405077D01*
X102809190Y-91405077D02*
X102761571Y-91357458D01*
X102761571Y-91357458D02*
X102713952Y-91262220D01*
X102713952Y-91262220D02*
X102713952Y-91071744D01*
X102713952Y-91071744D02*
X102761571Y-90976506D01*
X102713952Y-90071744D02*
X103380619Y-90071744D01*
X102713952Y-90500315D02*
X103237761Y-90500315D01*
X103237761Y-90500315D02*
X103333000Y-90452696D01*
X103333000Y-90452696D02*
X103380619Y-90357458D01*
X103380619Y-90357458D02*
X103380619Y-90214601D01*
X103380619Y-90214601D02*
X103333000Y-90119363D01*
X103333000Y-90119363D02*
X103285380Y-90071744D01*
X103380619Y-89452696D02*
X103333000Y-89547934D01*
X103333000Y-89547934D02*
X103237761Y-89595553D01*
X103237761Y-89595553D02*
X102380619Y-89595553D01*
X103380619Y-88643172D02*
X102856809Y-88643172D01*
X102856809Y-88643172D02*
X102761571Y-88690791D01*
X102761571Y-88690791D02*
X102713952Y-88786029D01*
X102713952Y-88786029D02*
X102713952Y-88976505D01*
X102713952Y-88976505D02*
X102761571Y-89071743D01*
X103333000Y-88643172D02*
X103380619Y-88738410D01*
X103380619Y-88738410D02*
X103380619Y-88976505D01*
X103380619Y-88976505D02*
X103333000Y-89071743D01*
X103333000Y-89071743D02*
X103237761Y-89119362D01*
X103237761Y-89119362D02*
X103142523Y-89119362D01*
X103142523Y-89119362D02*
X103047285Y-89071743D01*
X103047285Y-89071743D02*
X102999666Y-88976505D01*
X102999666Y-88976505D02*
X102999666Y-88738410D01*
X102999666Y-88738410D02*
X102952047Y-88643172D01*
X102713952Y-88309838D02*
X102713952Y-87928886D01*
X102380619Y-88166981D02*
X103237761Y-88166981D01*
X103237761Y-88166981D02*
X103333000Y-88119362D01*
X103333000Y-88119362D02*
X103380619Y-88024124D01*
X103380619Y-88024124D02*
X103380619Y-87928886D01*
X103380619Y-87452695D02*
X103333000Y-87547933D01*
X103333000Y-87547933D02*
X103285380Y-87595552D01*
X103285380Y-87595552D02*
X103190142Y-87643171D01*
X103190142Y-87643171D02*
X102904428Y-87643171D01*
X102904428Y-87643171D02*
X102809190Y-87595552D01*
X102809190Y-87595552D02*
X102761571Y-87547933D01*
X102761571Y-87547933D02*
X102713952Y-87452695D01*
X102713952Y-87452695D02*
X102713952Y-87309838D01*
X102713952Y-87309838D02*
X102761571Y-87214600D01*
X102761571Y-87214600D02*
X102809190Y-87166981D01*
X102809190Y-87166981D02*
X102904428Y-87119362D01*
X102904428Y-87119362D02*
X103190142Y-87119362D01*
X103190142Y-87119362D02*
X103285380Y-87166981D01*
X103285380Y-87166981D02*
X103333000Y-87214600D01*
X103333000Y-87214600D02*
X103380619Y-87309838D01*
X103380619Y-87309838D02*
X103380619Y-87452695D01*
X103380619Y-86690790D02*
X102713952Y-86690790D01*
X102904428Y-86690790D02*
X102809190Y-86643171D01*
X102809190Y-86643171D02*
X102761571Y-86595552D01*
X102761571Y-86595552D02*
X102713952Y-86500314D01*
X102713952Y-86500314D02*
X102713952Y-86405076D01*
X104990619Y-92738411D02*
X104990619Y-93309839D01*
X104990619Y-93024125D02*
X103990619Y-93024125D01*
X103990619Y-93024125D02*
X104133476Y-93119363D01*
X104133476Y-93119363D02*
X104228714Y-93214601D01*
X104228714Y-93214601D02*
X104276333Y-93309839D01*
X104609666Y-92309839D02*
X104609666Y-91547935D01*
X104085857Y-91119363D02*
X104038238Y-91071744D01*
X104038238Y-91071744D02*
X103990619Y-90976506D01*
X103990619Y-90976506D02*
X103990619Y-90738411D01*
X103990619Y-90738411D02*
X104038238Y-90643173D01*
X104038238Y-90643173D02*
X104085857Y-90595554D01*
X104085857Y-90595554D02*
X104181095Y-90547935D01*
X104181095Y-90547935D02*
X104276333Y-90547935D01*
X104276333Y-90547935D02*
X104419190Y-90595554D01*
X104419190Y-90595554D02*
X104990619Y-91166982D01*
X104990619Y-91166982D02*
X104990619Y-90547935D01*
X104990619Y-89357458D02*
X103990619Y-89357458D01*
X103990619Y-89357458D02*
X103990619Y-89119363D01*
X103990619Y-89119363D02*
X104038238Y-88976506D01*
X104038238Y-88976506D02*
X104133476Y-88881268D01*
X104133476Y-88881268D02*
X104228714Y-88833649D01*
X104228714Y-88833649D02*
X104419190Y-88786030D01*
X104419190Y-88786030D02*
X104562047Y-88786030D01*
X104562047Y-88786030D02*
X104752523Y-88833649D01*
X104752523Y-88833649D02*
X104847761Y-88881268D01*
X104847761Y-88881268D02*
X104943000Y-88976506D01*
X104943000Y-88976506D02*
X104990619Y-89119363D01*
X104990619Y-89119363D02*
X104990619Y-89357458D01*
X104990619Y-88357458D02*
X104323952Y-88357458D01*
X103990619Y-88357458D02*
X104038238Y-88405077D01*
X104038238Y-88405077D02*
X104085857Y-88357458D01*
X104085857Y-88357458D02*
X104038238Y-88309839D01*
X104038238Y-88309839D02*
X103990619Y-88357458D01*
X103990619Y-88357458D02*
X104085857Y-88357458D01*
X104990619Y-87452697D02*
X104466809Y-87452697D01*
X104466809Y-87452697D02*
X104371571Y-87500316D01*
X104371571Y-87500316D02*
X104323952Y-87595554D01*
X104323952Y-87595554D02*
X104323952Y-87786030D01*
X104323952Y-87786030D02*
X104371571Y-87881268D01*
X104943000Y-87452697D02*
X104990619Y-87547935D01*
X104990619Y-87547935D02*
X104990619Y-87786030D01*
X104990619Y-87786030D02*
X104943000Y-87881268D01*
X104943000Y-87881268D02*
X104847761Y-87928887D01*
X104847761Y-87928887D02*
X104752523Y-87928887D01*
X104752523Y-87928887D02*
X104657285Y-87881268D01*
X104657285Y-87881268D02*
X104609666Y-87786030D01*
X104609666Y-87786030D02*
X104609666Y-87547935D01*
X104609666Y-87547935D02*
X104562047Y-87452697D01*
X104943000Y-87024125D02*
X104990619Y-86928887D01*
X104990619Y-86928887D02*
X104990619Y-86738411D01*
X104990619Y-86738411D02*
X104943000Y-86643173D01*
X104943000Y-86643173D02*
X104847761Y-86595554D01*
X104847761Y-86595554D02*
X104800142Y-86595554D01*
X104800142Y-86595554D02*
X104704904Y-86643173D01*
X104704904Y-86643173D02*
X104657285Y-86738411D01*
X104657285Y-86738411D02*
X104657285Y-86881268D01*
X104657285Y-86881268D02*
X104609666Y-86976506D01*
X104609666Y-86976506D02*
X104514428Y-87024125D01*
X104514428Y-87024125D02*
X104466809Y-87024125D01*
X104466809Y-87024125D02*
X104371571Y-86976506D01*
X104371571Y-86976506D02*
X104323952Y-86881268D01*
X104323952Y-86881268D02*
X104323952Y-86738411D01*
X104323952Y-86738411D02*
X104371571Y-86643173D01*
X104990619Y-86166982D02*
X103990619Y-86166982D01*
X104371571Y-86166982D02*
X104323952Y-86071744D01*
X104323952Y-86071744D02*
X104323952Y-85881268D01*
X104323952Y-85881268D02*
X104371571Y-85786030D01*
X104371571Y-85786030D02*
X104419190Y-85738411D01*
X104419190Y-85738411D02*
X104514428Y-85690792D01*
X104514428Y-85690792D02*
X104800142Y-85690792D01*
X104800142Y-85690792D02*
X104895380Y-85738411D01*
X104895380Y-85738411D02*
X104943000Y-85786030D01*
X104943000Y-85786030D02*
X104990619Y-85881268D01*
X104990619Y-85881268D02*
X104990619Y-86071744D01*
X104990619Y-86071744D02*
X104943000Y-86166982D01*
X104990619Y-85119363D02*
X104943000Y-85214601D01*
X104943000Y-85214601D02*
X104847761Y-85262220D01*
X104847761Y-85262220D02*
X103990619Y-85262220D01*
X104943000Y-84357458D02*
X104990619Y-84452696D01*
X104990619Y-84452696D02*
X104990619Y-84643172D01*
X104990619Y-84643172D02*
X104943000Y-84738410D01*
X104943000Y-84738410D02*
X104847761Y-84786029D01*
X104847761Y-84786029D02*
X104466809Y-84786029D01*
X104466809Y-84786029D02*
X104371571Y-84738410D01*
X104371571Y-84738410D02*
X104323952Y-84643172D01*
X104323952Y-84643172D02*
X104323952Y-84452696D01*
X104323952Y-84452696D02*
X104371571Y-84357458D01*
X104371571Y-84357458D02*
X104466809Y-84309839D01*
X104466809Y-84309839D02*
X104562047Y-84309839D01*
X104562047Y-84309839D02*
X104657285Y-84786029D01*
X105695857Y-93309839D02*
X105648238Y-93262220D01*
X105648238Y-93262220D02*
X105600619Y-93166982D01*
X105600619Y-93166982D02*
X105600619Y-92928887D01*
X105600619Y-92928887D02*
X105648238Y-92833649D01*
X105648238Y-92833649D02*
X105695857Y-92786030D01*
X105695857Y-92786030D02*
X105791095Y-92738411D01*
X105791095Y-92738411D02*
X105886333Y-92738411D01*
X105886333Y-92738411D02*
X106029190Y-92786030D01*
X106029190Y-92786030D02*
X106600619Y-93357458D01*
X106600619Y-93357458D02*
X106600619Y-92738411D01*
X106219666Y-92309839D02*
X106219666Y-91547935D01*
X105600619Y-91166982D02*
X105600619Y-90547935D01*
X105600619Y-90547935D02*
X105981571Y-90881268D01*
X105981571Y-90881268D02*
X105981571Y-90738411D01*
X105981571Y-90738411D02*
X106029190Y-90643173D01*
X106029190Y-90643173D02*
X106076809Y-90595554D01*
X106076809Y-90595554D02*
X106172047Y-90547935D01*
X106172047Y-90547935D02*
X106410142Y-90547935D01*
X106410142Y-90547935D02*
X106505380Y-90595554D01*
X106505380Y-90595554D02*
X106553000Y-90643173D01*
X106553000Y-90643173D02*
X106600619Y-90738411D01*
X106600619Y-90738411D02*
X106600619Y-91024125D01*
X106600619Y-91024125D02*
X106553000Y-91119363D01*
X106553000Y-91119363D02*
X106505380Y-91166982D01*
X106076809Y-89357458D02*
X106076809Y-89024125D01*
X106600619Y-88881268D02*
X106600619Y-89357458D01*
X106600619Y-89357458D02*
X105600619Y-89357458D01*
X105600619Y-89357458D02*
X105600619Y-88881268D01*
X105933952Y-88452696D02*
X106600619Y-88452696D01*
X106029190Y-88452696D02*
X105981571Y-88405077D01*
X105981571Y-88405077D02*
X105933952Y-88309839D01*
X105933952Y-88309839D02*
X105933952Y-88166982D01*
X105933952Y-88166982D02*
X105981571Y-88071744D01*
X105981571Y-88071744D02*
X106076809Y-88024125D01*
X106076809Y-88024125D02*
X106600619Y-88024125D01*
X106600619Y-87119363D02*
X106076809Y-87119363D01*
X106076809Y-87119363D02*
X105981571Y-87166982D01*
X105981571Y-87166982D02*
X105933952Y-87262220D01*
X105933952Y-87262220D02*
X105933952Y-87452696D01*
X105933952Y-87452696D02*
X105981571Y-87547934D01*
X106553000Y-87119363D02*
X106600619Y-87214601D01*
X106600619Y-87214601D02*
X106600619Y-87452696D01*
X106600619Y-87452696D02*
X106553000Y-87547934D01*
X106553000Y-87547934D02*
X106457761Y-87595553D01*
X106457761Y-87595553D02*
X106362523Y-87595553D01*
X106362523Y-87595553D02*
X106267285Y-87547934D01*
X106267285Y-87547934D02*
X106219666Y-87452696D01*
X106219666Y-87452696D02*
X106219666Y-87214601D01*
X106219666Y-87214601D02*
X106172047Y-87119363D01*
X106600619Y-86643172D02*
X105600619Y-86643172D01*
X105981571Y-86643172D02*
X105933952Y-86547934D01*
X105933952Y-86547934D02*
X105933952Y-86357458D01*
X105933952Y-86357458D02*
X105981571Y-86262220D01*
X105981571Y-86262220D02*
X106029190Y-86214601D01*
X106029190Y-86214601D02*
X106124428Y-86166982D01*
X106124428Y-86166982D02*
X106410142Y-86166982D01*
X106410142Y-86166982D02*
X106505380Y-86214601D01*
X106505380Y-86214601D02*
X106553000Y-86262220D01*
X106553000Y-86262220D02*
X106600619Y-86357458D01*
X106600619Y-86357458D02*
X106600619Y-86547934D01*
X106600619Y-86547934D02*
X106553000Y-86643172D01*
X106600619Y-85595553D02*
X106553000Y-85690791D01*
X106553000Y-85690791D02*
X106457761Y-85738410D01*
X106457761Y-85738410D02*
X105600619Y-85738410D01*
X106553000Y-84833648D02*
X106600619Y-84928886D01*
X106600619Y-84928886D02*
X106600619Y-85119362D01*
X106600619Y-85119362D02*
X106553000Y-85214600D01*
X106553000Y-85214600D02*
X106457761Y-85262219D01*
X106457761Y-85262219D02*
X106076809Y-85262219D01*
X106076809Y-85262219D02*
X105981571Y-85214600D01*
X105981571Y-85214600D02*
X105933952Y-85119362D01*
X105933952Y-85119362D02*
X105933952Y-84928886D01*
X105933952Y-84928886D02*
X105981571Y-84833648D01*
X105981571Y-84833648D02*
X106076809Y-84786029D01*
X106076809Y-84786029D02*
X106172047Y-84786029D01*
X106172047Y-84786029D02*
X106267285Y-85262219D01*
X116875038Y-86312211D02*
X116827419Y-86407449D01*
X116827419Y-86407449D02*
X116827419Y-86550306D01*
X116827419Y-86550306D02*
X116875038Y-86693163D01*
X116875038Y-86693163D02*
X116970276Y-86788401D01*
X116970276Y-86788401D02*
X117065514Y-86836020D01*
X117065514Y-86836020D02*
X117255990Y-86883639D01*
X117255990Y-86883639D02*
X117398847Y-86883639D01*
X117398847Y-86883639D02*
X117589323Y-86836020D01*
X117589323Y-86836020D02*
X117684561Y-86788401D01*
X117684561Y-86788401D02*
X117779800Y-86693163D01*
X117779800Y-86693163D02*
X117827419Y-86550306D01*
X117827419Y-86550306D02*
X117827419Y-86455068D01*
X117827419Y-86455068D02*
X117779800Y-86312211D01*
X117779800Y-86312211D02*
X117732180Y-86264592D01*
X117732180Y-86264592D02*
X117398847Y-86264592D01*
X117398847Y-86264592D02*
X117398847Y-86455068D01*
X117827419Y-85836020D02*
X116827419Y-85836020D01*
X116827419Y-85836020D02*
X117827419Y-85264592D01*
X117827419Y-85264592D02*
X116827419Y-85264592D01*
X117827419Y-84788401D02*
X116827419Y-84788401D01*
X116827419Y-84788401D02*
X116827419Y-84550306D01*
X116827419Y-84550306D02*
X116875038Y-84407449D01*
X116875038Y-84407449D02*
X116970276Y-84312211D01*
X116970276Y-84312211D02*
X117065514Y-84264592D01*
X117065514Y-84264592D02*
X117255990Y-84216973D01*
X117255990Y-84216973D02*
X117398847Y-84216973D01*
X117398847Y-84216973D02*
X117589323Y-84264592D01*
X117589323Y-84264592D02*
X117684561Y-84312211D01*
X117684561Y-84312211D02*
X117779800Y-84407449D01*
X117779800Y-84407449D02*
X117827419Y-84550306D01*
X117827419Y-84550306D02*
X117827419Y-84788401D01*
X69265895Y-68847619D02*
X69265895Y-69657142D01*
X69265895Y-69657142D02*
X69313514Y-69752380D01*
X69313514Y-69752380D02*
X69361133Y-69800000D01*
X69361133Y-69800000D02*
X69456371Y-69847619D01*
X69456371Y-69847619D02*
X69646847Y-69847619D01*
X69646847Y-69847619D02*
X69742085Y-69800000D01*
X69742085Y-69800000D02*
X69789704Y-69752380D01*
X69789704Y-69752380D02*
X69837323Y-69657142D01*
X69837323Y-69657142D02*
X69837323Y-68847619D01*
X70742085Y-69180952D02*
X70742085Y-69847619D01*
X70503990Y-68800000D02*
X70265895Y-69514285D01*
X70265895Y-69514285D02*
X70884942Y-69514285D01*
X77749495Y-79693419D02*
X77749495Y-80502942D01*
X77749495Y-80502942D02*
X77797114Y-80598180D01*
X77797114Y-80598180D02*
X77844733Y-80645800D01*
X77844733Y-80645800D02*
X77939971Y-80693419D01*
X77939971Y-80693419D02*
X78130447Y-80693419D01*
X78130447Y-80693419D02*
X78225685Y-80645800D01*
X78225685Y-80645800D02*
X78273304Y-80598180D01*
X78273304Y-80598180D02*
X78320923Y-80502942D01*
X78320923Y-80502942D02*
X78320923Y-79693419D01*
X78701876Y-79693419D02*
X79368542Y-79693419D01*
X79368542Y-79693419D02*
X78939971Y-80693419D01*
X108386666Y-93765019D02*
X108386666Y-94479304D01*
X108386666Y-94479304D02*
X108339047Y-94622161D01*
X108339047Y-94622161D02*
X108243809Y-94717400D01*
X108243809Y-94717400D02*
X108100952Y-94765019D01*
X108100952Y-94765019D02*
X108005714Y-94765019D01*
X108862857Y-94765019D02*
X108862857Y-93765019D01*
X108862857Y-93765019D02*
X109243809Y-93765019D01*
X109243809Y-93765019D02*
X109339047Y-93812638D01*
X109339047Y-93812638D02*
X109386666Y-93860257D01*
X109386666Y-93860257D02*
X109434285Y-93955495D01*
X109434285Y-93955495D02*
X109434285Y-94098352D01*
X109434285Y-94098352D02*
X109386666Y-94193590D01*
X109386666Y-94193590D02*
X109339047Y-94241209D01*
X109339047Y-94241209D02*
X109243809Y-94288828D01*
X109243809Y-94288828D02*
X108862857Y-94288828D01*
X110386666Y-94765019D02*
X109815238Y-94765019D01*
X110100952Y-94765019D02*
X110100952Y-93765019D01*
X110100952Y-93765019D02*
X110005714Y-93907876D01*
X110005714Y-93907876D02*
X109910476Y-94003114D01*
X109910476Y-94003114D02*
X109815238Y-94050733D01*
X82713823Y-98749819D02*
X82380490Y-98273628D01*
X82142395Y-98749819D02*
X82142395Y-97749819D01*
X82142395Y-97749819D02*
X82523347Y-97749819D01*
X82523347Y-97749819D02*
X82618585Y-97797438D01*
X82618585Y-97797438D02*
X82666204Y-97845057D01*
X82666204Y-97845057D02*
X82713823Y-97940295D01*
X82713823Y-97940295D02*
X82713823Y-98083152D01*
X82713823Y-98083152D02*
X82666204Y-98178390D01*
X82666204Y-98178390D02*
X82618585Y-98226009D01*
X82618585Y-98226009D02*
X82523347Y-98273628D01*
X82523347Y-98273628D02*
X82142395Y-98273628D01*
X83142395Y-98749819D02*
X83142395Y-97749819D01*
X83142395Y-97749819D02*
X83713823Y-98749819D01*
X83713823Y-98749819D02*
X83713823Y-97749819D01*
X84713823Y-98749819D02*
X84142395Y-98749819D01*
X84428109Y-98749819D02*
X84428109Y-97749819D01*
X84428109Y-97749819D02*
X84332871Y-97892676D01*
X84332871Y-97892676D02*
X84237633Y-97987914D01*
X84237633Y-97987914D02*
X84142395Y-98035533D01*
X67233895Y-79693419D02*
X67233895Y-80502942D01*
X67233895Y-80502942D02*
X67281514Y-80598180D01*
X67281514Y-80598180D02*
X67329133Y-80645800D01*
X67329133Y-80645800D02*
X67424371Y-80693419D01*
X67424371Y-80693419D02*
X67614847Y-80693419D01*
X67614847Y-80693419D02*
X67710085Y-80645800D01*
X67710085Y-80645800D02*
X67757704Y-80598180D01*
X67757704Y-80598180D02*
X67805323Y-80502942D01*
X67805323Y-80502942D02*
X67805323Y-79693419D01*
X68424371Y-80121990D02*
X68329133Y-80074371D01*
X68329133Y-80074371D02*
X68281514Y-80026752D01*
X68281514Y-80026752D02*
X68233895Y-79931514D01*
X68233895Y-79931514D02*
X68233895Y-79883895D01*
X68233895Y-79883895D02*
X68281514Y-79788657D01*
X68281514Y-79788657D02*
X68329133Y-79741038D01*
X68329133Y-79741038D02*
X68424371Y-79693419D01*
X68424371Y-79693419D02*
X68614847Y-79693419D01*
X68614847Y-79693419D02*
X68710085Y-79741038D01*
X68710085Y-79741038D02*
X68757704Y-79788657D01*
X68757704Y-79788657D02*
X68805323Y-79883895D01*
X68805323Y-79883895D02*
X68805323Y-79931514D01*
X68805323Y-79931514D02*
X68757704Y-80026752D01*
X68757704Y-80026752D02*
X68710085Y-80074371D01*
X68710085Y-80074371D02*
X68614847Y-80121990D01*
X68614847Y-80121990D02*
X68424371Y-80121990D01*
X68424371Y-80121990D02*
X68329133Y-80169609D01*
X68329133Y-80169609D02*
X68281514Y-80217228D01*
X68281514Y-80217228D02*
X68233895Y-80312466D01*
X68233895Y-80312466D02*
X68233895Y-80502942D01*
X68233895Y-80502942D02*
X68281514Y-80598180D01*
X68281514Y-80598180D02*
X68329133Y-80645800D01*
X68329133Y-80645800D02*
X68424371Y-80693419D01*
X68424371Y-80693419D02*
X68614847Y-80693419D01*
X68614847Y-80693419D02*
X68710085Y-80645800D01*
X68710085Y-80645800D02*
X68757704Y-80598180D01*
X68757704Y-80598180D02*
X68805323Y-80502942D01*
X68805323Y-80502942D02*
X68805323Y-80312466D01*
X68805323Y-80312466D02*
X68757704Y-80217228D01*
X68757704Y-80217228D02*
X68710085Y-80169609D01*
X68710085Y-80169609D02*
X68614847Y-80121990D01*
X99388819Y-77382666D02*
X98912628Y-77715999D01*
X99388819Y-77954094D02*
X98388819Y-77954094D01*
X98388819Y-77954094D02*
X98388819Y-77573142D01*
X98388819Y-77573142D02*
X98436438Y-77477904D01*
X98436438Y-77477904D02*
X98484057Y-77430285D01*
X98484057Y-77430285D02*
X98579295Y-77382666D01*
X98579295Y-77382666D02*
X98722152Y-77382666D01*
X98722152Y-77382666D02*
X98817390Y-77430285D01*
X98817390Y-77430285D02*
X98865009Y-77477904D01*
X98865009Y-77477904D02*
X98912628Y-77573142D01*
X98912628Y-77573142D02*
X98912628Y-77954094D01*
X99388819Y-76430285D02*
X99388819Y-77001713D01*
X99388819Y-76715999D02*
X98388819Y-76715999D01*
X98388819Y-76715999D02*
X98531676Y-76811237D01*
X98531676Y-76811237D02*
X98626914Y-76906475D01*
X98626914Y-76906475D02*
X98674533Y-77001713D01*
X78536895Y-68898419D02*
X78536895Y-69707942D01*
X78536895Y-69707942D02*
X78584514Y-69803180D01*
X78584514Y-69803180D02*
X78632133Y-69850800D01*
X78632133Y-69850800D02*
X78727371Y-69898419D01*
X78727371Y-69898419D02*
X78917847Y-69898419D01*
X78917847Y-69898419D02*
X79013085Y-69850800D01*
X79013085Y-69850800D02*
X79060704Y-69803180D01*
X79060704Y-69803180D02*
X79108323Y-69707942D01*
X79108323Y-69707942D02*
X79108323Y-68898419D01*
X79489276Y-68898419D02*
X80108323Y-68898419D01*
X80108323Y-68898419D02*
X79774990Y-69279371D01*
X79774990Y-69279371D02*
X79917847Y-69279371D01*
X79917847Y-69279371D02*
X80013085Y-69326990D01*
X80013085Y-69326990D02*
X80060704Y-69374609D01*
X80060704Y-69374609D02*
X80108323Y-69469847D01*
X80108323Y-69469847D02*
X80108323Y-69707942D01*
X80108323Y-69707942D02*
X80060704Y-69803180D01*
X80060704Y-69803180D02*
X80013085Y-69850800D01*
X80013085Y-69850800D02*
X79917847Y-69898419D01*
X79917847Y-69898419D02*
X79632133Y-69898419D01*
X79632133Y-69898419D02*
X79536895Y-69850800D01*
X79536895Y-69850800D02*
X79489276Y-69803180D01*
X106076519Y-81762504D02*
X106886042Y-81762504D01*
X106886042Y-81762504D02*
X106981280Y-81714885D01*
X106981280Y-81714885D02*
X107028900Y-81667266D01*
X107028900Y-81667266D02*
X107076519Y-81572028D01*
X107076519Y-81572028D02*
X107076519Y-81381552D01*
X107076519Y-81381552D02*
X107028900Y-81286314D01*
X107028900Y-81286314D02*
X106981280Y-81238695D01*
X106981280Y-81238695D02*
X106886042Y-81191076D01*
X106886042Y-81191076D02*
X106076519Y-81191076D01*
X107076519Y-80191076D02*
X107076519Y-80762504D01*
X107076519Y-80476790D02*
X106076519Y-80476790D01*
X106076519Y-80476790D02*
X106219376Y-80572028D01*
X106219376Y-80572028D02*
X106314614Y-80667266D01*
X106314614Y-80667266D02*
X106362233Y-80762504D01*
X88900095Y-79693419D02*
X88900095Y-80502942D01*
X88900095Y-80502942D02*
X88947714Y-80598180D01*
X88947714Y-80598180D02*
X88995333Y-80645800D01*
X88995333Y-80645800D02*
X89090571Y-80693419D01*
X89090571Y-80693419D02*
X89281047Y-80693419D01*
X89281047Y-80693419D02*
X89376285Y-80645800D01*
X89376285Y-80645800D02*
X89423904Y-80598180D01*
X89423904Y-80598180D02*
X89471523Y-80502942D01*
X89471523Y-80502942D02*
X89471523Y-79693419D01*
X90376285Y-79693419D02*
X90185809Y-79693419D01*
X90185809Y-79693419D02*
X90090571Y-79741038D01*
X90090571Y-79741038D02*
X90042952Y-79788657D01*
X90042952Y-79788657D02*
X89947714Y-79931514D01*
X89947714Y-79931514D02*
X89900095Y-80121990D01*
X89900095Y-80121990D02*
X89900095Y-80502942D01*
X89900095Y-80502942D02*
X89947714Y-80598180D01*
X89947714Y-80598180D02*
X89995333Y-80645800D01*
X89995333Y-80645800D02*
X90090571Y-80693419D01*
X90090571Y-80693419D02*
X90281047Y-80693419D01*
X90281047Y-80693419D02*
X90376285Y-80645800D01*
X90376285Y-80645800D02*
X90423904Y-80598180D01*
X90423904Y-80598180D02*
X90471523Y-80502942D01*
X90471523Y-80502942D02*
X90471523Y-80264847D01*
X90471523Y-80264847D02*
X90423904Y-80169609D01*
X90423904Y-80169609D02*
X90376285Y-80121990D01*
X90376285Y-80121990D02*
X90281047Y-80074371D01*
X90281047Y-80074371D02*
X90090571Y-80074371D01*
X90090571Y-80074371D02*
X89995333Y-80121990D01*
X89995333Y-80121990D02*
X89947714Y-80169609D01*
X89947714Y-80169609D02*
X89900095Y-80264847D01*
X104620219Y-83224666D02*
X104144028Y-83557999D01*
X104620219Y-83796094D02*
X103620219Y-83796094D01*
X103620219Y-83796094D02*
X103620219Y-83415142D01*
X103620219Y-83415142D02*
X103667838Y-83319904D01*
X103667838Y-83319904D02*
X103715457Y-83272285D01*
X103715457Y-83272285D02*
X103810695Y-83224666D01*
X103810695Y-83224666D02*
X103953552Y-83224666D01*
X103953552Y-83224666D02*
X104048790Y-83272285D01*
X104048790Y-83272285D02*
X104096409Y-83319904D01*
X104096409Y-83319904D02*
X104144028Y-83415142D01*
X104144028Y-83415142D02*
X104144028Y-83796094D01*
X103715457Y-82843713D02*
X103667838Y-82796094D01*
X103667838Y-82796094D02*
X103620219Y-82700856D01*
X103620219Y-82700856D02*
X103620219Y-82462761D01*
X103620219Y-82462761D02*
X103667838Y-82367523D01*
X103667838Y-82367523D02*
X103715457Y-82319904D01*
X103715457Y-82319904D02*
X103810695Y-82272285D01*
X103810695Y-82272285D02*
X103905933Y-82272285D01*
X103905933Y-82272285D02*
X104048790Y-82319904D01*
X104048790Y-82319904D02*
X104620219Y-82891332D01*
X104620219Y-82891332D02*
X104620219Y-82272285D01*
X71221533Y-92919819D02*
X70888200Y-92443628D01*
X70650105Y-92919819D02*
X70650105Y-91919819D01*
X70650105Y-91919819D02*
X71031057Y-91919819D01*
X71031057Y-91919819D02*
X71126295Y-91967438D01*
X71126295Y-91967438D02*
X71173914Y-92015057D01*
X71173914Y-92015057D02*
X71221533Y-92110295D01*
X71221533Y-92110295D02*
X71221533Y-92253152D01*
X71221533Y-92253152D02*
X71173914Y-92348390D01*
X71173914Y-92348390D02*
X71126295Y-92396009D01*
X71126295Y-92396009D02*
X71031057Y-92443628D01*
X71031057Y-92443628D02*
X70650105Y-92443628D01*
X71554867Y-91919819D02*
X72173914Y-91919819D01*
X72173914Y-91919819D02*
X71840581Y-92300771D01*
X71840581Y-92300771D02*
X71983438Y-92300771D01*
X71983438Y-92300771D02*
X72078676Y-92348390D01*
X72078676Y-92348390D02*
X72126295Y-92396009D01*
X72126295Y-92396009D02*
X72173914Y-92491247D01*
X72173914Y-92491247D02*
X72173914Y-92729342D01*
X72173914Y-92729342D02*
X72126295Y-92824580D01*
X72126295Y-92824580D02*
X72078676Y-92872200D01*
X72078676Y-92872200D02*
X71983438Y-92919819D01*
X71983438Y-92919819D02*
X71697724Y-92919819D01*
X71697724Y-92919819D02*
X71602486Y-92872200D01*
X71602486Y-92872200D02*
X71554867Y-92824580D01*
X101654780Y-73648866D02*
X101702400Y-73696485D01*
X101702400Y-73696485D02*
X101750019Y-73839342D01*
X101750019Y-73839342D02*
X101750019Y-73934580D01*
X101750019Y-73934580D02*
X101702400Y-74077437D01*
X101702400Y-74077437D02*
X101607161Y-74172675D01*
X101607161Y-74172675D02*
X101511923Y-74220294D01*
X101511923Y-74220294D02*
X101321447Y-74267913D01*
X101321447Y-74267913D02*
X101178590Y-74267913D01*
X101178590Y-74267913D02*
X100988114Y-74220294D01*
X100988114Y-74220294D02*
X100892876Y-74172675D01*
X100892876Y-74172675D02*
X100797638Y-74077437D01*
X100797638Y-74077437D02*
X100750019Y-73934580D01*
X100750019Y-73934580D02*
X100750019Y-73839342D01*
X100750019Y-73839342D02*
X100797638Y-73696485D01*
X100797638Y-73696485D02*
X100845257Y-73648866D01*
X101750019Y-72696485D02*
X101750019Y-73267913D01*
X101750019Y-72982199D02*
X100750019Y-72982199D01*
X100750019Y-72982199D02*
X100892876Y-73077437D01*
X100892876Y-73077437D02*
X100988114Y-73172675D01*
X100988114Y-73172675D02*
X101035733Y-73267913D01*
X84975966Y-59154819D02*
X84975966Y-59869104D01*
X84975966Y-59869104D02*
X84928347Y-60011961D01*
X84928347Y-60011961D02*
X84833109Y-60107200D01*
X84833109Y-60107200D02*
X84690252Y-60154819D01*
X84690252Y-60154819D02*
X84595014Y-60154819D01*
X85975966Y-60154819D02*
X85404538Y-60154819D01*
X85690252Y-60154819D02*
X85690252Y-59154819D01*
X85690252Y-59154819D02*
X85595014Y-59297676D01*
X85595014Y-59297676D02*
X85499776Y-59392914D01*
X85499776Y-59392914D02*
X85404538Y-59440533D01*
X109971205Y-65869819D02*
X109971205Y-64869819D01*
X110542633Y-65869819D02*
X110114062Y-65298390D01*
X110542633Y-64869819D02*
X109971205Y-65441247D01*
X111495014Y-65869819D02*
X110923586Y-65869819D01*
X111209300Y-65869819D02*
X111209300Y-64869819D01*
X111209300Y-64869819D02*
X111114062Y-65012676D01*
X111114062Y-65012676D02*
X111018824Y-65107914D01*
X111018824Y-65107914D02*
X110923586Y-65155533D01*
X58695014Y-65869819D02*
X58695014Y-64869819D01*
X59266442Y-65869819D02*
X58837871Y-65298390D01*
X59266442Y-64869819D02*
X58695014Y-65441247D01*
X60123585Y-65203152D02*
X60123585Y-65869819D01*
X59885490Y-64822200D02*
X59647395Y-65536485D01*
X59647395Y-65536485D02*
X60266442Y-65536485D01*
X60837871Y-64869819D02*
X60933109Y-64869819D01*
X60933109Y-64869819D02*
X61028347Y-64917438D01*
X61028347Y-64917438D02*
X61075966Y-64965057D01*
X61075966Y-64965057D02*
X61123585Y-65060295D01*
X61123585Y-65060295D02*
X61171204Y-65250771D01*
X61171204Y-65250771D02*
X61171204Y-65488866D01*
X61171204Y-65488866D02*
X61123585Y-65679342D01*
X61123585Y-65679342D02*
X61075966Y-65774580D01*
X61075966Y-65774580D02*
X61028347Y-65822200D01*
X61028347Y-65822200D02*
X60933109Y-65869819D01*
X60933109Y-65869819D02*
X60837871Y-65869819D01*
X60837871Y-65869819D02*
X60742633Y-65822200D01*
X60742633Y-65822200D02*
X60695014Y-65774580D01*
X60695014Y-65774580D02*
X60647395Y-65679342D01*
X60647395Y-65679342D02*
X60599776Y-65488866D01*
X60599776Y-65488866D02*
X60599776Y-65250771D01*
X60599776Y-65250771D02*
X60647395Y-65060295D01*
X60647395Y-65060295D02*
X60695014Y-64965057D01*
X60695014Y-64965057D02*
X60742633Y-64917438D01*
X60742633Y-64917438D02*
X60837871Y-64869819D01*
X58718824Y-54154104D02*
X59195014Y-54154104D01*
X58623586Y-54439819D02*
X58956919Y-53439819D01*
X58956919Y-53439819D02*
X59290252Y-54439819D01*
X60052157Y-53773152D02*
X60052157Y-54439819D01*
X59814062Y-53392200D02*
X59575967Y-54106485D01*
X59575967Y-54106485D02*
X60195014Y-54106485D01*
X60766443Y-53439819D02*
X60861681Y-53439819D01*
X60861681Y-53439819D02*
X60956919Y-53487438D01*
X60956919Y-53487438D02*
X61004538Y-53535057D01*
X61004538Y-53535057D02*
X61052157Y-53630295D01*
X61052157Y-53630295D02*
X61099776Y-53820771D01*
X61099776Y-53820771D02*
X61099776Y-54058866D01*
X61099776Y-54058866D02*
X61052157Y-54249342D01*
X61052157Y-54249342D02*
X61004538Y-54344580D01*
X61004538Y-54344580D02*
X60956919Y-54392200D01*
X60956919Y-54392200D02*
X60861681Y-54439819D01*
X60861681Y-54439819D02*
X60766443Y-54439819D01*
X60766443Y-54439819D02*
X60671205Y-54392200D01*
X60671205Y-54392200D02*
X60623586Y-54344580D01*
X60623586Y-54344580D02*
X60575967Y-54249342D01*
X60575967Y-54249342D02*
X60528348Y-54058866D01*
X60528348Y-54058866D02*
X60528348Y-53820771D01*
X60528348Y-53820771D02*
X60575967Y-53630295D01*
X60575967Y-53630295D02*
X60623586Y-53535057D01*
X60623586Y-53535057D02*
X60671205Y-53487438D01*
X60671205Y-53487438D02*
X60766443Y-53439819D01*
X109995014Y-54154104D02*
X110471204Y-54154104D01*
X109899776Y-54439819D02*
X110233109Y-53439819D01*
X110233109Y-53439819D02*
X110566442Y-54439819D01*
X111423585Y-54439819D02*
X110852157Y-54439819D01*
X111137871Y-54439819D02*
X111137871Y-53439819D01*
X111137871Y-53439819D02*
X111042633Y-53582676D01*
X111042633Y-53582676D02*
X110947395Y-53677914D01*
X110947395Y-53677914D02*
X110852157Y-53725533D01*
X116050219Y-73547266D02*
X116050219Y-74023456D01*
X116050219Y-74023456D02*
X115050219Y-74023456D01*
X116050219Y-72690123D02*
X116050219Y-73261551D01*
X116050219Y-72975837D02*
X115050219Y-72975837D01*
X115050219Y-72975837D02*
X115193076Y-73071075D01*
X115193076Y-73071075D02*
X115288314Y-73166313D01*
X115288314Y-73166313D02*
X115335933Y-73261551D01*
X64265733Y-92919819D02*
X63932400Y-92443628D01*
X63694305Y-92919819D02*
X63694305Y-91919819D01*
X63694305Y-91919819D02*
X64075257Y-91919819D01*
X64075257Y-91919819D02*
X64170495Y-91967438D01*
X64170495Y-91967438D02*
X64218114Y-92015057D01*
X64218114Y-92015057D02*
X64265733Y-92110295D01*
X64265733Y-92110295D02*
X64265733Y-92253152D01*
X64265733Y-92253152D02*
X64218114Y-92348390D01*
X64218114Y-92348390D02*
X64170495Y-92396009D01*
X64170495Y-92396009D02*
X64075257Y-92443628D01*
X64075257Y-92443628D02*
X63694305Y-92443628D01*
X65122876Y-92253152D02*
X65122876Y-92919819D01*
X64884781Y-91872200D02*
X64646686Y-92586485D01*
X64646686Y-92586485D02*
X65265733Y-92586485D01*
X112057080Y-80339066D02*
X112104700Y-80386685D01*
X112104700Y-80386685D02*
X112152319Y-80529542D01*
X112152319Y-80529542D02*
X112152319Y-80624780D01*
X112152319Y-80624780D02*
X112104700Y-80767637D01*
X112104700Y-80767637D02*
X112009461Y-80862875D01*
X112009461Y-80862875D02*
X111914223Y-80910494D01*
X111914223Y-80910494D02*
X111723747Y-80958113D01*
X111723747Y-80958113D02*
X111580890Y-80958113D01*
X111580890Y-80958113D02*
X111390414Y-80910494D01*
X111390414Y-80910494D02*
X111295176Y-80862875D01*
X111295176Y-80862875D02*
X111199938Y-80767637D01*
X111199938Y-80767637D02*
X111152319Y-80624780D01*
X111152319Y-80624780D02*
X111152319Y-80529542D01*
X111152319Y-80529542D02*
X111199938Y-80386685D01*
X111199938Y-80386685D02*
X111247557Y-80339066D01*
X111247557Y-79958113D02*
X111199938Y-79910494D01*
X111199938Y-79910494D02*
X111152319Y-79815256D01*
X111152319Y-79815256D02*
X111152319Y-79577161D01*
X111152319Y-79577161D02*
X111199938Y-79481923D01*
X111199938Y-79481923D02*
X111247557Y-79434304D01*
X111247557Y-79434304D02*
X111342795Y-79386685D01*
X111342795Y-79386685D02*
X111438033Y-79386685D01*
X111438033Y-79386685D02*
X111580890Y-79434304D01*
X111580890Y-79434304D02*
X112152319Y-80005732D01*
X112152319Y-80005732D02*
X112152319Y-79386685D01*
X113466666Y-91072619D02*
X113466666Y-91786904D01*
X113466666Y-91786904D02*
X113419047Y-91929761D01*
X113419047Y-91929761D02*
X113323809Y-92025000D01*
X113323809Y-92025000D02*
X113180952Y-92072619D01*
X113180952Y-92072619D02*
X113085714Y-92072619D01*
X113942857Y-92072619D02*
X113942857Y-91072619D01*
X113942857Y-91072619D02*
X114323809Y-91072619D01*
X114323809Y-91072619D02*
X114419047Y-91120238D01*
X114419047Y-91120238D02*
X114466666Y-91167857D01*
X114466666Y-91167857D02*
X114514285Y-91263095D01*
X114514285Y-91263095D02*
X114514285Y-91405952D01*
X114514285Y-91405952D02*
X114466666Y-91501190D01*
X114466666Y-91501190D02*
X114419047Y-91548809D01*
X114419047Y-91548809D02*
X114323809Y-91596428D01*
X114323809Y-91596428D02*
X113942857Y-91596428D01*
X114847619Y-91072619D02*
X115466666Y-91072619D01*
X115466666Y-91072619D02*
X115133333Y-91453571D01*
X115133333Y-91453571D02*
X115276190Y-91453571D01*
X115276190Y-91453571D02*
X115371428Y-91501190D01*
X115371428Y-91501190D02*
X115419047Y-91548809D01*
X115419047Y-91548809D02*
X115466666Y-91644047D01*
X115466666Y-91644047D02*
X115466666Y-91882142D01*
X115466666Y-91882142D02*
X115419047Y-91977380D01*
X115419047Y-91977380D02*
X115371428Y-92025000D01*
X115371428Y-92025000D02*
X115276190Y-92072619D01*
X115276190Y-92072619D02*
X114990476Y-92072619D01*
X114990476Y-92072619D02*
X114895238Y-92025000D01*
X114895238Y-92025000D02*
X114847619Y-91977380D01*
X59893295Y-68822219D02*
X59893295Y-69631742D01*
X59893295Y-69631742D02*
X59940914Y-69726980D01*
X59940914Y-69726980D02*
X59988533Y-69774600D01*
X59988533Y-69774600D02*
X60083771Y-69822219D01*
X60083771Y-69822219D02*
X60274247Y-69822219D01*
X60274247Y-69822219D02*
X60369485Y-69774600D01*
X60369485Y-69774600D02*
X60417104Y-69726980D01*
X60417104Y-69726980D02*
X60464723Y-69631742D01*
X60464723Y-69631742D02*
X60464723Y-68822219D01*
X61417104Y-68822219D02*
X60940914Y-68822219D01*
X60940914Y-68822219D02*
X60893295Y-69298409D01*
X60893295Y-69298409D02*
X60940914Y-69250790D01*
X60940914Y-69250790D02*
X61036152Y-69203171D01*
X61036152Y-69203171D02*
X61274247Y-69203171D01*
X61274247Y-69203171D02*
X61369485Y-69250790D01*
X61369485Y-69250790D02*
X61417104Y-69298409D01*
X61417104Y-69298409D02*
X61464723Y-69393647D01*
X61464723Y-69393647D02*
X61464723Y-69631742D01*
X61464723Y-69631742D02*
X61417104Y-69726980D01*
X61417104Y-69726980D02*
X61369485Y-69774600D01*
X61369485Y-69774600D02*
X61274247Y-69822219D01*
X61274247Y-69822219D02*
X61036152Y-69822219D01*
X61036152Y-69822219D02*
X60940914Y-69774600D01*
X60940914Y-69774600D02*
X60893295Y-69726980D01*
X60172695Y-79693419D02*
X60172695Y-80502942D01*
X60172695Y-80502942D02*
X60220314Y-80598180D01*
X60220314Y-80598180D02*
X60267933Y-80645800D01*
X60267933Y-80645800D02*
X60363171Y-80693419D01*
X60363171Y-80693419D02*
X60553647Y-80693419D01*
X60553647Y-80693419D02*
X60648885Y-80645800D01*
X60648885Y-80645800D02*
X60696504Y-80598180D01*
X60696504Y-80598180D02*
X60744123Y-80502942D01*
X60744123Y-80502942D02*
X60744123Y-79693419D01*
X61267933Y-80693419D02*
X61458409Y-80693419D01*
X61458409Y-80693419D02*
X61553647Y-80645800D01*
X61553647Y-80645800D02*
X61601266Y-80598180D01*
X61601266Y-80598180D02*
X61696504Y-80455323D01*
X61696504Y-80455323D02*
X61744123Y-80264847D01*
X61744123Y-80264847D02*
X61744123Y-79883895D01*
X61744123Y-79883895D02*
X61696504Y-79788657D01*
X61696504Y-79788657D02*
X61648885Y-79741038D01*
X61648885Y-79741038D02*
X61553647Y-79693419D01*
X61553647Y-79693419D02*
X61363171Y-79693419D01*
X61363171Y-79693419D02*
X61267933Y-79741038D01*
X61267933Y-79741038D02*
X61220314Y-79788657D01*
X61220314Y-79788657D02*
X61172695Y-79883895D01*
X61172695Y-79883895D02*
X61172695Y-80121990D01*
X61172695Y-80121990D02*
X61220314Y-80217228D01*
X61220314Y-80217228D02*
X61267933Y-80264847D01*
X61267933Y-80264847D02*
X61363171Y-80312466D01*
X61363171Y-80312466D02*
X61553647Y-80312466D01*
X61553647Y-80312466D02*
X61648885Y-80264847D01*
X61648885Y-80264847D02*
X61696504Y-80217228D01*
X61696504Y-80217228D02*
X61744123Y-80121990D01*
X87731695Y-68949219D02*
X87731695Y-69758742D01*
X87731695Y-69758742D02*
X87779314Y-69853980D01*
X87779314Y-69853980D02*
X87826933Y-69901600D01*
X87826933Y-69901600D02*
X87922171Y-69949219D01*
X87922171Y-69949219D02*
X88112647Y-69949219D01*
X88112647Y-69949219D02*
X88207885Y-69901600D01*
X88207885Y-69901600D02*
X88255504Y-69853980D01*
X88255504Y-69853980D02*
X88303123Y-69758742D01*
X88303123Y-69758742D02*
X88303123Y-68949219D01*
X88731695Y-69044457D02*
X88779314Y-68996838D01*
X88779314Y-68996838D02*
X88874552Y-68949219D01*
X88874552Y-68949219D02*
X89112647Y-68949219D01*
X89112647Y-68949219D02*
X89207885Y-68996838D01*
X89207885Y-68996838D02*
X89255504Y-69044457D01*
X89255504Y-69044457D02*
X89303123Y-69139695D01*
X89303123Y-69139695D02*
X89303123Y-69234933D01*
X89303123Y-69234933D02*
X89255504Y-69377790D01*
X89255504Y-69377790D02*
X88684076Y-69949219D01*
X88684076Y-69949219D02*
X89303123Y-69949219D01*
X99241780Y-80024266D02*
X99289400Y-80071885D01*
X99289400Y-80071885D02*
X99337019Y-80214742D01*
X99337019Y-80214742D02*
X99337019Y-80309980D01*
X99337019Y-80309980D02*
X99289400Y-80452837D01*
X99289400Y-80452837D02*
X99194161Y-80548075D01*
X99194161Y-80548075D02*
X99098923Y-80595694D01*
X99098923Y-80595694D02*
X98908447Y-80643313D01*
X98908447Y-80643313D02*
X98765590Y-80643313D01*
X98765590Y-80643313D02*
X98575114Y-80595694D01*
X98575114Y-80595694D02*
X98479876Y-80548075D01*
X98479876Y-80548075D02*
X98384638Y-80452837D01*
X98384638Y-80452837D02*
X98337019Y-80309980D01*
X98337019Y-80309980D02*
X98337019Y-80214742D01*
X98337019Y-80214742D02*
X98384638Y-80071885D01*
X98384638Y-80071885D02*
X98432257Y-80024266D01*
X98337019Y-79690932D02*
X98337019Y-79071885D01*
X98337019Y-79071885D02*
X98717971Y-79405218D01*
X98717971Y-79405218D02*
X98717971Y-79262361D01*
X98717971Y-79262361D02*
X98765590Y-79167123D01*
X98765590Y-79167123D02*
X98813209Y-79119504D01*
X98813209Y-79119504D02*
X98908447Y-79071885D01*
X98908447Y-79071885D02*
X99146542Y-79071885D01*
X99146542Y-79071885D02*
X99241780Y-79119504D01*
X99241780Y-79119504D02*
X99289400Y-79167123D01*
X99289400Y-79167123D02*
X99337019Y-79262361D01*
X99337019Y-79262361D02*
X99337019Y-79548075D01*
X99337019Y-79548075D02*
X99289400Y-79643313D01*
X99289400Y-79643313D02*
X99241780Y-79690932D01*
X104651980Y-71464466D02*
X104699600Y-71512085D01*
X104699600Y-71512085D02*
X104747219Y-71654942D01*
X104747219Y-71654942D02*
X104747219Y-71750180D01*
X104747219Y-71750180D02*
X104699600Y-71893037D01*
X104699600Y-71893037D02*
X104604361Y-71988275D01*
X104604361Y-71988275D02*
X104509123Y-72035894D01*
X104509123Y-72035894D02*
X104318647Y-72083513D01*
X104318647Y-72083513D02*
X104175790Y-72083513D01*
X104175790Y-72083513D02*
X103985314Y-72035894D01*
X103985314Y-72035894D02*
X103890076Y-71988275D01*
X103890076Y-71988275D02*
X103794838Y-71893037D01*
X103794838Y-71893037D02*
X103747219Y-71750180D01*
X103747219Y-71750180D02*
X103747219Y-71654942D01*
X103747219Y-71654942D02*
X103794838Y-71512085D01*
X103794838Y-71512085D02*
X103842457Y-71464466D01*
X104080552Y-70607323D02*
X104747219Y-70607323D01*
X103699600Y-70845418D02*
X104413885Y-71083513D01*
X104413885Y-71083513D02*
X104413885Y-70464466D01*
D11*
%TO.C,U4*%
X77666700Y-74348100D02*
X77666700Y-70748100D01*
X77666700Y-74348100D02*
X77666700Y-76548100D01*
X69596700Y-74348100D02*
X69596700Y-72148100D01*
X69596700Y-74348100D02*
X69596700Y-76548100D01*
%TO.C,U7*%
X86848700Y-84820600D02*
X86848700Y-81370600D01*
X86848700Y-84820600D02*
X86848700Y-86770600D01*
X77978700Y-84820600D02*
X77978700Y-82870600D01*
X77978700Y-84820600D02*
X77978700Y-86770600D01*
%TO.C,JP1*%
X110550000Y-92770000D02*
X109220000Y-92770000D01*
X110550000Y-91440000D02*
X110550000Y-92770000D01*
X110550000Y-90170000D02*
X110550000Y-85030000D01*
X110550000Y-90170000D02*
X107890000Y-90170000D01*
X110550000Y-85030000D02*
X107890000Y-85030000D01*
X107890000Y-90170000D02*
X107890000Y-85030000D01*
%TO.C,RN1*%
X96274300Y-97295000D02*
X96274300Y-94495000D01*
X96274300Y-94495000D02*
X73074300Y-94495000D01*
X93564300Y-97295000D02*
X93564300Y-94495000D01*
X73074300Y-97295000D02*
X96274300Y-97295000D01*
X73074300Y-94495000D02*
X73074300Y-97295000D01*
%TO.C,U8*%
X72629300Y-84820600D02*
X72629300Y-81370600D01*
X72629300Y-84820600D02*
X72629300Y-86770600D01*
X67509300Y-84820600D02*
X67509300Y-82870600D01*
X67509300Y-84820600D02*
X67509300Y-86770600D01*
%TO.C,R1*%
X99849000Y-77443064D02*
X99849000Y-76988936D01*
X101319000Y-77443064D02*
X101319000Y-76988936D01*
%TO.C,U3*%
X86804900Y-74348100D02*
X86804900Y-70748100D01*
X86804900Y-74348100D02*
X86804900Y-76548100D01*
X78734900Y-74348100D02*
X78734900Y-72148100D01*
X78734900Y-74348100D02*
X78734900Y-76548100D01*
%TO.C,U1*%
X105621700Y-79707600D02*
X107621700Y-79707600D01*
X106621700Y-76487600D02*
X107621700Y-76487600D01*
%TO.C,U6*%
X97948500Y-84831800D02*
X97948500Y-81381800D01*
X97948500Y-84831800D02*
X97948500Y-86781800D01*
X89078500Y-84831800D02*
X89078500Y-82881800D01*
X89078500Y-84831800D02*
X89078500Y-86781800D01*
%TO.C,R2*%
X101118936Y-82323000D02*
X101573064Y-82323000D01*
X101118936Y-83793000D02*
X101573064Y-83793000D01*
%TO.C,R3*%
X71615264Y-91550000D02*
X71161136Y-91550000D01*
X71615264Y-90080000D02*
X71161136Y-90080000D01*
%TO.C,C1*%
X102308100Y-76770652D02*
X102308100Y-75348148D01*
X104128100Y-76770652D02*
X104128100Y-75348148D01*
D12*
%TO.C,J1*%
X57293100Y-52232400D02*
X57293100Y-62242955D01*
X57293100Y-63253045D02*
X57293100Y-67167600D01*
X57293100Y-67167600D02*
X113325500Y-67167600D01*
X113198500Y-60462000D02*
X114087500Y-60462000D01*
X113325500Y-52232400D02*
X57293100Y-52232400D01*
X113325500Y-59194955D02*
X113325500Y-52232400D01*
X113325500Y-67167600D02*
X113325500Y-60205045D01*
X114087500Y-58938000D02*
X113198500Y-58938000D01*
X114087500Y-60462000D02*
X114087500Y-58938000D01*
D13*
X114341500Y-53985000D02*
G75*
G03*
X114341500Y-53985000I-381000J0D01*
G01*
D12*
%TO.C,L1*%
X109933860Y-76055060D02*
X108285400Y-74406600D01*
X108285400Y-74406600D02*
X108285400Y-72374600D01*
X114254400Y-74406600D02*
X112605940Y-76055060D01*
X108285400Y-72374600D02*
X109933860Y-70726140D01*
X114254400Y-72374600D02*
X114254400Y-74406600D01*
X112605940Y-70726140D02*
X114254400Y-72374600D01*
D11*
%TO.C,R4*%
X64659464Y-91550000D02*
X64205336Y-91550000D01*
X64659464Y-90080000D02*
X64205336Y-90080000D01*
%TO.C,C2*%
X110757500Y-79461148D02*
X110757500Y-80883652D01*
X108937500Y-79461148D02*
X108937500Y-80883652D01*
%TO.C,JP3*%
X115630000Y-90230000D02*
X114300000Y-90230000D01*
X115630000Y-88900000D02*
X115630000Y-90230000D01*
X115630000Y-87630000D02*
X115630000Y-85030000D01*
X115630000Y-87630000D02*
X112970000Y-87630000D01*
X115630000Y-85030000D02*
X112970000Y-85030000D01*
X112970000Y-87630000D02*
X112970000Y-85030000D01*
%TO.C,U5*%
X68481100Y-74348100D02*
X68481100Y-70748100D01*
X68481100Y-74348100D02*
X68481100Y-76548100D01*
X60411100Y-74348100D02*
X60411100Y-72148100D01*
X60411100Y-74348100D02*
X60411100Y-76548100D01*
%TO.C,U9*%
X65720500Y-84831800D02*
X65720500Y-81381800D01*
X65720500Y-84831800D02*
X65720500Y-86781800D01*
X60600500Y-84831800D02*
X60600500Y-82881800D01*
X60600500Y-84831800D02*
X60600500Y-86781800D01*
%TO.C,U2*%
X95943100Y-74363500D02*
X95943100Y-70763500D01*
X95943100Y-74363500D02*
X95943100Y-76563500D01*
X87873100Y-74363500D02*
X87873100Y-72163500D01*
X87873100Y-74363500D02*
X87873100Y-76563500D01*
%TO.C,C3*%
X102616052Y-81174000D02*
X101193548Y-81174000D01*
X102616052Y-79354000D02*
X101193548Y-79354000D01*
%TO.C,C4*%
X107353900Y-72399948D02*
X107353900Y-73822452D01*
X105533900Y-72399948D02*
X105533900Y-73822452D01*
%TD*%
M02*
